<svg xmlns="http://www.w3.org/2000/svg" viewBox="0 0 40.02 28.36">
    <defs>
        <style>.cls-1{fill:none;stroke:#fff;stroke-miterlimit:10;stroke-width:0.62px;}</style>
    </defs>
    <title>Asset 10</title>
    <g id="Layer_2" data-name="Layer 2">
        <g id="Layer_1-2" data-name="Layer 1">
            <path class="cls-1"
                  d="M21.47,7.62,14.59.74a1.5,1.5,0,0,0-2.12,0v4H1.92A1.62,1.62,0,0,0,.31,6.36V11a1.62,1.62,0,0,0,1.62,1.62H12.48v4a1.5,1.5,0,0,0,2.12,0l6.88-6.88A1.5,1.5,0,0,0,21.47,7.62Z"/>
            <path class="cls-1"
                  d="M18.55,20.74l6.88,6.88a1.5,1.5,0,0,0,2.12,0v-4H38.1A1.62,1.62,0,0,0,39.71,22V17.36a1.62,1.62,0,0,0-1.62-1.62H27.55v-4a1.5,1.5,0,0,0-2.12,0l-6.88,6.88A1.5,1.5,0,0,0,18.55,20.74Z"/>
        </g>
    </g>
</svg>
