<svg xmlns="http://www.w3.org/2000/svg" viewBox="0 0 20.87 16.6">
    <defs>
        <style>.cls-1{fill:#fff;}</style>
    </defs>
    <title>Asset 6</title>
    <g id="Layer_2" data-name="Layer 2">
        <g id="Layer_1-2" data-name="Layer 1">
            <path class="cls-1"
                  d="M0,14.91V4.74A2.34,2.34,0,0,1,2.65,3.1c.58,0,1.17,0,1.76,0a1,1,0,0,0,1.06-.76c.19-.55.37-1.1.56-1.66A.9.9,0,0,1,7,0H13.9a.91.91,0,0,1,.93.67c.19.54.36,1.08.54,1.61s.46.82,1.16.82h2.18a2,2,0,0,1,1.63.73,6.51,6.51,0,0,1,.53,1V14.91a2.1,2.1,0,0,1-2,1.68H2A2,2,0,0,1,.1,15.16C.07,15.08,0,15,0,14.91Zm10.43-.37A5.21,5.21,0,1,0,5.2,9.26,5.23,5.23,0,0,0,10.43,14.54Zm8.36-8.61a.74.74,0,0,0-.72-.75.72.72,0,0,0-.75.7.74.74,0,0,0,.71.76A.77.77,0,0,0,18.79,5.93Z"/>
            <path class="cls-1" d="M10.42,12.44a3.06,3.06,0,0,1-3.1-3.16,3.12,3.12,0,1,1,3.1,3.16Z"/>
        </g>
    </g>
</svg>
