<svg xmlns="http://www.w3.org/2000/svg" width="27.996" height="27.565" viewBox="0 0 65 64">
    <metadata><?xpacket begin="﻿" id="W5M0MpCehiHzreSzNTczkc9d"?>
        <x:xmpmeta xmlns:x="adobe:ns:meta/" x:xmptk="Adobe XMP Core 5.6-c138 79.159824, 2016/09/14-01:09:01        ">
            <rdf:RDF xmlns:rdf="http://www.w3.org/1999/02/22-rdf-syntax-ns#">
                <rdf:Description rdf:about=""/>
            </rdf:RDF>
        </x:xmpmeta>


        <?xpacket end="w"?>
    </metadata>
    <defs>
        <style>
            .cls-1, .cls-2 {
            fill: #666;
            }

            .cls-1 {
            fill-opacity: 0;
            stroke: #666;
            stroke-linejoin: round;
            stroke-width: 3px;
            }

            .cls-2 {
            fill-rule: evenodd;
            }
        </style>
    </defs>
    <circle class="cls-1" cx="32.5" cy="32.5" r="30.5"/>
    <path id="Rounded_Rectangle_2_copy" data-name="Rounded Rectangle 2 copy" class="cls-2"
          d="M24.7,17.25s-5.818.407-7.381,7.618c0,0-4.6-.752-4.428,1.428s2.46,3.333,2.46,3.333a67.962,67.962,0,0,0-1.476,14.283s-0.252,3.6,3.936,3.809,3.936-4.285,3.936-4.285H45.368s-0.341,4.079,2.952,4.285,4.246-.71,4.428-2.856c0,0,.323-12.743-0.492-14.759,0,0,4.538-5.355,0-5.237s-2.46,0-2.46,0,0.1-7.618-9.349-7.618H24.7Zm0.376,2.857H41.954a3.393,3.393,0,0,1,3.053,1.764l2.156,5.358A2,2,0,0,1,45.1,30.1H21.93a2,2,0,0,1-2.061-2.876l2.156-5.358A3.393,3.393,0,0,1,25.078,20.107ZM19.547,33.938h5.906a1.2,1.2,0,0,1,1.2,1.2v2.844a1.2,1.2,0,0,1-1.2,1.2H19.547a1.2,1.2,0,0,1-1.2-1.2V35.141A1.2,1.2,0,0,1,19.547,33.938Zm22.594,0h5.969a1.2,1.2,0,0,1,1.2,1.2v2.844a1.2,1.2,0,0,1-1.2,1.2H42.141a1.2,1.2,0,0,1-1.2-1.2V35.141A1.2,1.2,0,0,1,42.141,33.938Z"/>
</svg>
