<svg xmlns="http://www.w3.org/2000/svg" viewBox="0 0 24.32 24.32">
    <defs>
        <style>.cls-1{fill:none;stroke:#606060;stroke-miterlimit:10;}.cls-2{fill:#606060;}</style>
    </defs>
    <title>Asset 2</title>
    <g id="Layer_2" data-name="Layer 2">
        <g id="Layer_1-2" data-name="Layer 1">
            <rect class="cls-1" x="0.5" y="0.5" width="23.32" height="23.32" rx="4.81" ry="4.81"/>
            <path class="cls-2"
                  d="M18.53,12.87l.05-.4A1.26,1.26,0,0,0,17.33,11h-.19a1.26,1.26,0,0,1-1.26-1.26v-.6c0-.85.24-1.42,1.45-1.42h.28A1.26,1.26,0,0,0,18.87,6.5V6.31a1.26,1.26,0,0,0-1.21-1.26l-1,0a3.52,3.52,0,0,0-3.76,3.87v.89A1.26,1.26,0,0,1,11.59,11h0a1.26,1.26,0,0,0-1.26,1.26v.4A1.26,1.26,0,0,0,11.59,14h0a1.26,1.26,0,0,1,1.26,1.26v5a1.26,1.26,0,0,0,1.26,1.26h.49a1.26,1.26,0,0,0,1.26-1.26v-5A1.26,1.26,0,0,1,17.14,14h.14A1.26,1.26,0,0,0,18.53,12.87Z"/>
        </g>
    </g>
</svg>
