<svg xmlns="http://www.w3.org/2000/svg" viewBox="0 0 27.32 26.45">
    <defs>
        <style>.cls-1{fill:#bcbcbc;}</style>
    </defs>
    <title>Asset 12</title>
    <g id="Layer_2" data-name="Layer 2">
        <g id="Layer_1-2" data-name="Layer 1">
            <path class="cls-1"
                  d="M17.32.67A2.6,2.6,0,0,1,19,1.87a5.73,5.73,0,0,0,3.76,2.79,2.2,2.2,0,0,1,1.86,2.49c0,.3,0,.57,0,.79,0,1.69,0,1.82,1.27,3.48l.23.31a2.31,2.31,0,0,1,0,3c-1.4,1.89-1.51,2-1.5,3.59,0,.27,0,.58,0,1a2.37,2.37,0,0,1-1.93,2.56,8.76,8.76,0,0,1-.86.27,3.6,3.6,0,0,0-2.25,1.64A9.58,9.58,0,0,1,18.63,25a2,2,0,0,1-1.5.75,2.13,2.13,0,0,1-.48-.06A15.05,15.05,0,0,1,15,25.23,3.93,3.93,0,0,0,13.66,25a3.72,3.72,0,0,0-1.31.25c-.38.14-.81.29-1.31.43a2.76,2.76,0,0,1-.76.12,2.12,2.12,0,0,1-1.69-.88,13.49,13.49,0,0,1-.87-1.19,3.55,3.55,0,0,0-2.1-1.53A11,11,0,0,1,4,21.6a1.9,1.9,0,0,1-1.2-1.68c-.05-.59-.07-1.23-.06-2a3.61,3.61,0,0,0-.66-2.06c-.37-.57-.72-1.19-1.06-1.78l-.36-.63V13l.22-.48a4.85,4.85,0,0,1,.61-1.1A5.28,5.28,0,0,0,2.75,7.56C2.67,5.73,3.15,5.07,5,4.5l.12,0,.06,0A4.09,4.09,0,0,0,8,2.39,3.36,3.36,0,0,1,10,.67h.46l.63.19c.6.19,1.21.38,1.84.54a3.06,3.06,0,0,0,.73.09,3.07,3.07,0,0,0,.73-.09c.63-.15,1.25-.35,1.84-.54l.63-.2h.45M13.68,21.3h0a8,8,0,0,0,8-8.08,8.07,8.07,0,0,0-8.08-8,8,8,0,0,0-8,8.08,8.07,8.07,0,0,0,8.07,8m0-14.43,0,.67A5.7,5.7,0,1,1,8,13.2,5.63,5.63,0,0,1,13.7,7.55V6.88M17.41,0h-.64c-.84.26-1.67.54-2.53.75a2.41,2.41,0,0,1-.57.07A2.41,2.41,0,0,1,13.1.75C12.25.54,11.41.26,10.57,0H9.93A4,4,0,0,0,7.41,2,3.4,3.4,0,0,1,5,3.78a2.32,2.32,0,0,0-.25.08C2.7,4.51,2,5.41,2.08,7.59A4.62,4.62,0,0,1,1,11a9.93,9.93,0,0,0-1,1.85v.85c.51.87,1,1.75,1.53,2.59A3,3,0,0,1,2.08,18c0,.67,0,1.35.07,2a2.57,2.57,0,0,0,1.59,2.23,11.67,11.67,0,0,0,1.7.61,2.9,2.9,0,0,1,1.72,1.26,14.1,14.1,0,0,0,.91,1.25,2.78,2.78,0,0,0,2.21,1.12,3.41,3.41,0,0,0,.94-.14c.46-.13.92-.28,1.37-.45a3,3,0,0,1,1.08-.2,3.24,3.24,0,0,1,1.1.2,15.69,15.69,0,0,0,1.73.51,2.79,2.79,0,0,0,.64.08,2.64,2.64,0,0,0,2-1,10.26,10.26,0,0,0,1-1.32A2.91,2.91,0,0,1,22,22.8a9.74,9.74,0,0,0,1-.3,3,3,0,0,0,2.34-3.17c.05-2.4-.29-1.95,1.37-4.19a3,3,0,0,0,0-3.81c-1.56-2.13-1.34-1.7-1.37-4.19A2.84,2.84,0,0,0,22.91,4a5.09,5.09,0,0,1-3.35-2.47A3.3,3.3,0,0,0,17.41,0ZM13.68,20.63a7.39,7.39,0,0,1,0-14.78h0a7.39,7.39,0,0,1,0,14.78Zm0-13.76a6.37,6.37,0,0,0-.08,12.73h0A6.37,6.37,0,0,0,13.7,6.88Z"/>
        </g>
    </g>
</svg>
