<svg xmlns="http://www.w3.org/2000/svg" viewBox="0 0 22.29 34.34">
    <defs>
        <style>.cls-1{fill:#bcbcbc;}</style>
    </defs>
    <title>Asset 21</title>
    <g id="Layer_2" data-name="Layer 2">
        <g id="Layer_1-2" data-name="Layer 1">
            <path class="cls-1"
                  d="M11.15,34.34,1.14,16A11.09,11.09,0,0,1,.69,15L.3,14.07H.4A11,11,0,0,1,0,11.15a11.15,11.15,0,1,1,22.29,0,11,11,0,0,1-.4,2.92H22l-.39.95c-.12.32-.26.65-.42,1ZM1.6,14.55l0,.06a10.24,10.24,0,0,0,.41,1l9.12,16.68,9.14-16.72c.13-.27.26-.58.38-.89l.09-.24a10.15,10.15,0,1,0-19.2,0Zm9.55.29a3.69,3.69,0,1,1,3.69-3.69A3.7,3.7,0,0,1,11.15,14.84Zm0-6.39a2.69,2.69,0,1,0,2.69,2.69A2.7,2.7,0,0,0,11.15,8.45Z"/>
        </g>
    </g>
</svg>
