<svg xmlns="http://www.w3.org/2000/svg" viewBox="0 0 27.9 25.34">
    <defs>
        <style>.cls-1{fill:#bcbcbc;}</style>
    </defs>
    <title>Asset 22</title>
    <g id="Layer_2" data-name="Layer 2">
        <g id="Layer_1-2" data-name="Layer 1">
            <path class="cls-1"
                  d="M20.05,25.34l-7.73-6.27H3.19A3.19,3.19,0,0,1,0,15.88V3.19A3.19,3.19,0,0,1,3.19,0H24.72A3.19,3.19,0,0,1,27.9,3.19v12.7a3.19,3.19,0,0,1-3.19,3.19H19.33ZM3.19,1A2.19,2.19,0,0,0,1,3.19v12.7a2.19,2.19,0,0,0,2.19,2.19h9.49L18.78,23l-.57-4.95h6.5a2.19,2.19,0,0,0,2.19-2.19V3.19A2.19,2.19,0,0,0,24.72,1Z"/>
        </g>
    </g>
</svg>
