<svg xmlns="http://www.w3.org/2000/svg" viewBox="0 0 26.29 28.84">
    <defs>
        <style>.cls-1{fill:#bcbcbc;}</style>
    </defs>
    <title>Asset 13</title>
    <g id="Layer_2" data-name="Layer 2">
        <g id="Layer_1-2" data-name="Layer 1">
            <path class="cls-1"
                  d="M13.12,28.84a12.29,12.29,0,0,1-8.55-3.53,8.33,8.33,0,0,1-.65.86,1.16,1.16,0,0,1-1,.4,1.14,1.14,0,0,1-.68-.89c-.23-1.89-.41-3.58-.55-5.18a1.29,1.29,0,0,1,.47-1.21,1.32,1.32,0,0,1,1.31-.08c1.55.67,3.15,1.38,4.75,2.13a1.13,1.13,0,0,1,.63.94,1.2,1.2,0,0,1-.69.85,4.48,4.48,0,0,1-.69.25,8.33,8.33,0,0,0,8,1.73A8.51,8.51,0,1,0,4.67,15.35l0,.28c0,.15-.05.29-.08.44A1.65,1.65,0,0,1,2.63,17.5a1.65,1.65,0,0,1-1.38-2A11.63,11.63,0,0,1,4.24,9C6,7,7.82,6,11.3,5.21c0-.1,0-.21,0-.31s0-.15,0-.23C10,4.46,9.49,4.21,9.47,3A2.72,2.72,0,0,1,11.79.06a12.66,12.66,0,0,1,2.53,0,2.61,2.61,0,0,1,1.93,1.29,2.74,2.74,0,0,1,.28,2.39,1.57,1.57,0,0,1-1.69.91v.59a11.87,11.87,0,0,1,7.41,4.28,11.29,11.29,0,0,1,2.55,6.27,11.69,11.69,0,0,1-6.74,11.91A11.07,11.07,0,0,1,13.12,28.84Zm-8.64-4.7.31.33A11.17,11.17,0,0,0,17.72,27,11,11,0,0,0,24,15.85,10.55,10.55,0,0,0,21.66,10,11.19,11.19,0,0,0,14.4,5.93l-.32,0V4l.45-.05c.1,0,.18,0,.26,0,.61,0,.89,0,1-.43a2,2,0,0,0-.22-1.73A1.89,1.89,0,0,0,14.24.81a12,12,0,0,0-2.38,0A2,2,0,0,0,10.22,3c0,.72,0,.78,1.48,1L12,4l0,.46c0,.14,0,.28,0,.42s0,.31,0,.46l0,.45-.27.06C8.25,6.69,6.5,7.61,4.8,9.5A10.89,10.89,0,0,0,2,15.62a.92.92,0,1,0,1.81.29c0-.14.05-.27.08-.41l.05-.29a9.25,9.25,0,1,1,11.76,10.6c-3.32,1-6.36.22-9.29-2.33L5.9,23l.64-.2L7,22.71a5,5,0,0,0,.78-.26.68.68,0,0,0,.27-.24,1.21,1.21,0,0,0-.2-.19c-1.6-.74-3.19-1.46-4.73-2.12a.59.59,0,0,0-.58,0,.58.58,0,0,0-.17.53c.14,1.59.32,3.28.55,5.16a.53.53,0,0,0,.16.27,2.25,2.25,0,0,0,.25-.19,7.61,7.61,0,0,0,.6-.79l.26-.37Z"/>
            <path class="cls-1"
                  d="M24.45,10.46,20.26,6l.16-.25c1-1.48,1.93-2.09,4-.86a3.29,3.29,0,0,1,.79.69,3.44,3.44,0,0,1,1.09,2.54,3.2,3.2,0,0,1-1.56,2.11ZM21.22,5.95l3.32,3.52a2.26,2.26,0,0,0,1-1.4c.07-.55-.2-1.13-.91-2A2.6,2.6,0,0,0,24,5.57C22.55,4.68,22,4.86,21.22,5.95Z"/>
            <path class="cls-1"
                  d="M1.67,10.33l-.27-.21C.19,9.16-.33,8.4.22,6.94S2.52,4,4,4.34a3.29,3.29,0,0,1,1.36.78c.14.12.28.23.41.32l.37.25ZM3.62,5A3.45,3.45,0,0,0,.92,7.21C.6,8.06.65,8.5,1.61,9.32L5,5.79,4.89,5.7a2.71,2.71,0,0,0-1-.63Z"/>
            <path class="cls-1"
                  d="M15.31,21.72a6.36,6.36,0,0,1-1.74.25c-2.95,0-4.48-1.47-5-3.47h-1V17.1h.78v-.33a4.31,4.31,0,0,1,0-.43H7.6V14.93h1a4.71,4.71,0,0,1,4.95-3.47,5.15,5.15,0,0,1,1.55.23l-.6,1.7a3.59,3.59,0,0,0-.95-.12,3.25,3.25,0,0,0-3,1.66h3.28l-.32,1.41h-3.4a4.31,4.31,0,0,0,0,.43,2.44,2.44,0,0,0,0,.33h3.17L13,18.5H10.5a3.17,3.17,0,0,0,3.06,1.68A3.64,3.64,0,0,0,14.78,20Z"/>
        </g>
    </g>
</svg>
