<svg xmlns="http://www.w3.org/2000/svg" viewBox="0 0 27.93 27.87">
    <defs>
        <style>.cls-1{fill:#bcbcbc;}</style>
    </defs>
    <title>Asset 14</title>
    <g id="Layer_2" data-name="Layer 2">
        <g id="Layer_1-2" data-name="Layer 1">
            <path class="cls-1"
                  d="M26.12,8.35A7.7,7.7,0,0,0,27.91,3,2.87,2.87,0,0,0,26.41.53,4.13,4.13,0,0,0,22.62.39a.56.56,0,0,0-.24.26.39.39,0,0,0,.1.45.44.44,0,0,0,.52.1A3.89,3.89,0,0,1,24.75.93,2.29,2.29,0,0,1,27,3.36a7.63,7.63,0,0,1-3.21,6l-.23.18,0-.41c0-.06,0-.1,0-.15l-.1-4.19c0-.43-.16-.57-.58-.57H20.21l-5.32,0a.71.71,0,0,0-.55.22L4.5,14.28.22,18.57A.61.61,0,0,0,0,19a.6.6,0,0,0,.22.41L8.5,27.66a.47.47,0,0,0,.79,0l3.45-3.45,10.7-10.7a.69.69,0,0,0,.21-.55c0-.3,0-.61,0-.92s0-.77,0-1.15a.56.56,0,0,1,.29-.56A8.43,8.43,0,0,0,26.12,8.35Zm-3.39,4.46a.43.43,0,0,1-.15.29L9.16,26.51l0,0-.2.15-.18-.05v-.07L1.16,18.93l.13-.14.13-.14L4.77,15.3l9.91-9.92a.81.81,0,0,1,.62-.26h7.3v.67c0,.37,0,.72,0,1.07q0,1.41.07,2.83a.41.41,0,0,1-.31.46l-1,.3-.53.16,0-.17c0-.15,0-.3,0-.44a5.07,5.07,0,0,0-.12-.8,2.83,2.83,0,1,0-3.09,3.6,2.76,2.76,0,0,0,2.63-1.08.67.67,0,0,1,.49-.27c.45-.06.9-.13,1.38-.21l.71-.12v.51C22.73,12,22.73,12.4,22.73,12.81Zm-5-4.6V8.06h.15a1.84,1.84,0,0,1,1.53.71,1.7,1.7,0,0,1,.37,1.5l0,.13-.13,0A2.38,2.38,0,0,1,17.74,8.21Zm1.53,3.07-.17.16a1.71,1.71,0,0,1-1.18.44h-.11A1.9,1.9,0,0,1,16,9.76a1.73,1.73,0,0,1,.64-1.21l.19-.15.05.23a3.39,3.39,0,0,0,2.19,2.56Z"/>
        </g>
    </g>
</svg>
