<svg xmlns="http://www.w3.org/2000/svg" viewBox="0 0 28.95 28.08">
    <defs>
        <style>.cls-1{fill:#bcbcbc;}</style>
    </defs>
    <title>Asset 15</title>
    <g id="Layer_2" data-name="Layer 2">
        <g id="Layer_1-2" data-name="Layer 1">
            <path class="cls-1"
                  d="M26.26,28.08H2.69A2.69,2.69,0,0,1,0,25.39V8A2.69,2.69,0,0,1,2.69,5.32H5.35V9.13a.92.92,0,1,0,1.84,0V5.32H23.6V9.13a.92.92,0,1,0,1.84,0V5.32h.83A2.69,2.69,0,0,1,29,8V25.39A2.69,2.69,0,0,1,26.26,28.08ZM2.69,6.07A1.94,1.94,0,0,0,.75,8V25.39a1.94,1.94,0,0,0,1.94,1.94H26.26a1.94,1.94,0,0,0,1.94-1.94V8a1.94,1.94,0,0,0-1.94-1.94h-.08V9.13a1.67,1.67,0,1,1-3.34,0V6.07H7.94V9.13a1.67,1.67,0,1,1-3.34,0V6.07Z"/>
            <path class="cls-1"
                  d="M24.52,10.8a1.67,1.67,0,0,1-1.67-1.67V1.67a1.67,1.67,0,1,1,3.34,0V9.13A1.67,1.67,0,0,1,24.52,10.8Zm0-10.05a.92.92,0,0,0-.92.92V9.13a.92.92,0,1,0,1.84,0V1.67A.92.92,0,0,0,24.52.75ZM6.27,10.8A1.67,1.67,0,0,1,4.6,9.13V1.67a1.67,1.67,0,1,1,3.34,0V9.13A1.67,1.67,0,0,1,6.27,10.8ZM6.27.75a.92.92,0,0,0-.92.92V9.13a.92.92,0,1,0,1.84,0V1.67A.92.92,0,0,0,6.27.75Z"/>
            <path class="cls-1" d="M8.11,24.48H4.27V20.72H8.11ZM5,23.73H7.36V21.47H5Z"/>
        </g>
    </g>
</svg>
