<svg xmlns="http://www.w3.org/2000/svg" viewBox="0 0 27.95 27.92">
    <defs>
        <style>.cls-1{fill:#bcbcbc;}</style>
    </defs>
    <title>Asset 16</title>
    <g id="Layer_2" data-name="Layer 2">
        <g id="Layer_1-2" data-name="Layer 1">
            <path class="cls-1"
                  d="M13.95,27.92A13.87,13.87,0,0,1,4.1,23.85,13.78,13.78,0,0,1,0,14,13.84,13.84,0,0,1,13.9,0h.05a14,14,0,0,1,14,13.9,14,14,0,0,1-14,14h0Zm0-27.17h0A13.1,13.1,0,0,0,.75,14a13.2,13.2,0,0,0,13.2,13.13h0a13.21,13.21,0,1,0,0-26.42ZM13.9,26.48h-.21a12.52,12.52,0,0,1,.29-25h.13A12.49,12.49,0,0,1,22.7,22.9,12.54,12.54,0,0,1,13.9,26.48ZM1.85,13.84h.37A11.72,11.72,0,0,0,13.7,25.73a11.86,11.86,0,0,0,8.48-3.37A11.75,11.75,0,0,0,14.1,2.2,11.81,11.81,0,0,0,2.22,13.85Z"/>
            <path class="cls-1" d="M18.78,21H9.31V18.16h9.47Zm-8.72-.75h8V18.91h-8Z"/>
            <path class="cls-1"
                  d="M13.85,11.78a2.1,2.1,0,0,0-1,.27L4.54,8.73l7.21,4.95a2.06,2.06,0,0,0,0,.23,2.12,2.12,0,1,0,2.12-2.12Z"/>
        </g>
    </g>
</svg>
