<svg xmlns="http://www.w3.org/2000/svg" viewBox="0 0 26.12 27.12">
    <defs>
        <style>.cls-1{fill:#bcbcbc;}</style>
    </defs>
    <title>Asset 17</title>
    <g id="Layer_2" data-name="Layer 2">
        <g id="Layer_1-2" data-name="Layer 1">
            <path class="cls-1"
                  d="M17.51,9.78q0,4.42,0,8.83c0,.23,0,.23.23.23h1.77a1.74,1.74,0,0,1,1.7,1.22,2,2,0,0,1,.08.53c0,.32,0,.65,0,1A1.43,1.43,0,0,0,22.63,23,1.55,1.55,0,0,0,24,22.44a1.34,1.34,0,0,0,.33-.82c0-.07,0-.13,0-.2q0-5.66,0-11.33a.27.27,0,0,0-.16-.28.7.7,0,0,1-.27-.28c-.08-.14-.15-.14-.28-.1-.32.11-.64.21-1,.28a1.53,1.53,0,0,1-.48,0A.29.29,0,0,1,22,9.62a1.88,1.88,0,0,1-.61-1.16,4.19,4.19,0,0,1,.06-.6c0-.08,0-.13-.08-.17a.63.63,0,0,1-.44-.8,1.9,1.9,0,0,0,0-.28A.65.65,0,0,1,21.32,6c.26-.14.51-.29.77-.43.1,0,.09-.09,0-.17L22,5.18a.7.7,0,0,1,.08-.87c.1-.1.06-.15,0-.22a5,5,0,0,0-1.67-.85c-.45-.13-.91-.23-1.36-.33-.28-.06-.42-.25-.33-.48a.36.36,0,0,1,.39-.23A8.48,8.48,0,0,1,21.55,3a11.06,11.06,0,0,1,1.11.72c.07,0,.11.07.2,0a.75.75,0,0,1,1,.11c.53.57,1.06,1.16,1.58,1.74a1.43,1.43,0,0,1,.29.62c.11.42.23.83.35,1.25,0,.11,0,.17-.1.19h0c-.26.1-.25.1-.18.37s.15.54.21.81a.73.73,0,0,1-.56.91c-.17,0-.2.13-.2.28q0,5.77,0,11.54a2.32,2.32,0,0,1-1.84,2.3,2.56,2.56,0,0,1-2.13-.37,2.3,2.3,0,0,1-1-1.89c0-.3,0-.61,0-.91a.81.81,0,0,0-.83-.86H17.68c-.12,0-.16,0-.16.17q0,1.79,0,3.58c0,.11,0,.16.16.16a1.12,1.12,0,0,1,1.14,1.2c0,.35,0,.7,0,1.05a1.12,1.12,0,0,1-1.18,1.18H1.15a1.07,1.07,0,0,1-1.06-.69A1.15,1.15,0,0,1,0,26c0-.4,0-.8,0-1.19a1.09,1.09,0,0,1,1.07-1.15c.22,0,.22,0,.22-.23q0-11.23,0-22.47a1,1,0,0,1,1-1Q9.39,0,16.51,0a1,1,0,0,1,1,1C17.51,3.93,17.52,6.85,17.51,9.78ZM2.24,12.32h0q0,5.57,0,11.14c0,.21,0,.22.22.22H16.34c.23,0,.23,0,.23-.23q0-11.13,0-22.27c0-.23,0-.23-.23-.23H2.5c-.26,0-.26,0-.26.26Q2.24,6.76,2.24,12.32ZM9.4,24.62H1.24c-.23,0-.27,0-.27.27s0,.66,0,1,0,.29.3.29H17.62c.14,0,.2-.07.2-.21,0-.35,0-.7,0-1.05s0-.29-.29-.29ZM21.65,7h.06L23,6.64a.65.65,0,0,1,.87.45c.18.66.4,1.31.59,2,0,.12.1.13.19.11l.5-.12c.12,0,.15-.07.12-.19-.12-.47-.22-.94-.35-1.41,0-.16,0-.23.15-.26l.07,0A.12.12,0,0,0,25.24,7a2.36,2.36,0,0,0-.71-1.42,1,1,0,0,1-.1-.11l-1-1.11c0-.05-.09-.09-.17,0l-.55.4c-.08.05-.08.1,0,.18s.14.21.2.31a.6.6,0,0,1-.22.87l-.82.46C21.64,6.64,21.6,6.73,21.65,7Zm1.41,1.32h-.33s-.1,0-.1,0a1.47,1.47,0,0,1,0-.38s.14,0,.22,0h.19c.28,0,.28,0,.2-.27l0-.08c0-.11-.08-.14-.19-.11a5.25,5.25,0,0,1-.55.14c-.23,0-.36.13-.34.38a.3.3,0,0,1,0,.09.91.91,0,0,0,.23,1,.27.27,0,0,0,.21.07c.31-.08.61-.19.91-.29a.16.16,0,0,0,.08-.13c0-.31-.05-.31-.37-.31Z"/>
            <path class="cls-1"
                  d="M9.4,10.34H4.57a.69.69,0,0,1-.74-.73q0-3.21,0-6.43a.7.7,0,0,1,.74-.74h9.64a.73.73,0,0,1,.77.78q0,1.72,0,3.44,0,1.45,0,2.9a.72.72,0,0,1-.78.78Zm0-.94h4.4c.22,0,.22,0,.22-.23q0-2.79,0-5.58c0-.21,0-.22-.22-.22H5c-.23,0-.23,0-.23.23q0,2.78,0,5.56c0,.22,0,.22.22.22Z"/>
            <path class="cls-1"
                  d="M11.67,15.76A12.54,12.54,0,0,0,10.1,13.5c-.22-.26-.46-.52-.69-.78l-.11.09a14.58,14.58,0,0,0-2.12,2.83,3.47,3.47,0,0,0-.47,1.24,2.77,2.77,0,0,0,.93,2.52,2.47,2.47,0,0,0,2.62.52,2.81,2.81,0,0,0,1.83-2.69A3.21,3.21,0,0,0,11.67,15.76Z"/>
            <path class="cls-1"
                  d="M6.16,6l.1,0L9.13,7.55a.52.52,0,0,0,.22.05.6.6,0,0,1,.59.53.61.61,0,0,1-.47.65.61.61,0,0,1-.72-.37.77.77,0,0,0-.2-.28L6.14,6Z"/>
        </g>
    </g>
</svg>
