<svg xmlns="http://www.w3.org/2000/svg" viewBox="0 0 28.26 27.92">
    <defs>
        <style>.cls-1{fill:#bcbcbc;}</style>
    </defs>
    <title>Asset 18</title>
    <g id="Layer_2" data-name="Layer 2">
        <g id="Layer_1-2" data-name="Layer 1">
            <path class="cls-1"
                  d="M24.5,27.92l-.17,0-.1,0a3.64,3.64,0,0,1-1.48-6.77l.06-.11q0-1.89,0-3.77V15.75H15.94V17c0,1.32,0,2.64,0,4,0,.14,0,.14.1.19A3.59,3.59,0,0,1,17.7,24.9a3.64,3.64,0,0,1-2.78,2.89l-.39.08-.19,0h-.46l-.18-.06a3.63,3.63,0,0,1-1.43-6.77l.07-.14q0-1.87,0-3.74V15.75H5.47V17c0,1.31,0,2.62,0,3.93,0,.1,0,.1.1.16a3.64,3.64,0,0,1-1.1,6.65l-.41.08-.18,0H3.52l-.12,0-.09,0A3.62,3.62,0,0,1,.11,25c0-.14-.05-.29-.07-.44l0-.42,0-.17A3.66,3.66,0,0,1,1.91,21l0-14.17L2,6.45l-.19.32A3.58,3.58,0,0,1,.09,4.32C.07,4.19,0,4,0,3.9l0-.3,0-.25c0-.15,0-.29.07-.44A3.62,3.62,0,0,1,3.57,0a3.68,3.68,0,0,1,3.6,2.58A3.62,3.62,0,0,1,5.53,6.78l-.44.11h.38c0,1.26,0,2.52,0,3.79v1.46h6.89v-.55c0-1.6,0-3.19,0-4.79,0,0,0,0-.05,0A3.6,3.6,0,0,1,10.51,4a3.65,3.65,0,0,1,7-1.73A3.6,3.6,0,0,1,16,6.75c-.1.06-.11.07-.11.22,0,1.31,0,2.61,0,3.92v1.26h6.88V10.88q0-2,0-4.05l-.07,0A3.64,3.64,0,0,1,24.5,0a3.69,3.69,0,0,1,3.6,2.58,3.63,3.63,0,0,1-1.62,4.18c-.1.06-.1.06-.1.16q0,7,0,14.05l-.12.46.19-.32a3.64,3.64,0,0,1-1,6.68l-.41.08-.17,0ZM4.72,15h8.35l0,.46c0,.08,0,.16,0,.24v1.51q0,1.87,0,3.74a.82.82,0,0,1-.44.79,2.88,2.88,0,0,0-1.4,3.07,2.92,2.92,0,0,0,2.54,2.3,1,1,0,0,1,.2.05l.38,0,.37-.08A2.89,2.89,0,0,0,17,24.78a2.86,2.86,0,0,0-1.31-3,.88.88,0,0,1-.46-.84c0-1.32,0-2.63,0-4V15h8.35l0,.46c0,.08,0,.16,0,.24v1.51q0,1.88,0,3.77a.8.8,0,0,1-.42.76,2.89,2.89,0,0,0,1.18,5.38l.2,0h.24l.1,0,.38-.08a2.89,2.89,0,0,0,.83-5.3.82.82,0,0,1-.44-.78q0-7,0-14a.86.86,0,0,1,.46-.8A2.89,2.89,0,0,0,24.53.75,2.92,2.92,0,0,0,21.77,3a2.88,2.88,0,0,0,1.36,3.09.75.75,0,0,1,.43.69q0,2,0,4v1.46a1.41,1.41,0,0,1,0,.15l0,.33-.34.07h-8v-2c0-1.3,0-2.61,0-3.91a.9.9,0,0,1,.47-.86,2.86,2.86,0,0,0,1.17-3.57A2.9,2.9,0,0,0,11.26,3.9a2.85,2.85,0,0,0,1.41,2.25.85.85,0,0,1,.4.64c0,1.6,0,3.2,0,4.8v.71a1.24,1.24,0,0,1,0,.19l0,.32-.33.08H4.76l0-.35c0-.17,0-.25,0-.33V10.68c0-1.26,0-2.52,0-3.78a.8.8,0,0,1,.43-.76A2.88,2.88,0,0,0,6.46,2.8a2.93,2.93,0,0,0-2.85-2A2.89,2.89,0,0,0,.84,3.08c0,.13,0,.26-.07.39l0,.17,0,.16c0,.12,0,.25.06.37a2.82,2.82,0,0,0,1.37,2,.81.81,0,0,1,.44.75V21a.81.81,0,0,1-.34.66A2.91,2.91,0,0,0,.79,24a1,1,0,0,1,0,.2v.08l0,.14c0,.13,0,.26.06.39A2.89,2.89,0,0,0,3.4,27.12l.21,0h.23l.11,0,.38-.08a2.89,2.89,0,0,0,.88-5.28.86.86,0,0,1-.46-.8c0-1.31,0-2.62,0-3.92V15Z"/>
        </g>
    </g>
</svg>
