<svg xmlns="http://www.w3.org/2000/svg" viewBox="0 0 32.82 30.47">
    <defs>
        <style>.cls-1{fill:#bcbcbc;}</style>
    </defs>
    <title>Asset 19</title>
    <g id="Layer_2" data-name="Layer 2">
        <g id="Layer_1-2" data-name="Layer 1">
            <path class="cls-1"
                  d="M5.18,30.47H2.78A2.66,2.66,0,0,1,0,27.71q0-4.44,0-8.88v-16A2.49,2.49,0,0,1,1.56.46,3.09,3.09,0,0,1,2.79.23c2.08,0,4.16,0,6.24,0A2.62,2.62,0,0,1,11.81,3q0,7.5,0,15v6.31q0,1.65,0,3.3a2.66,2.66,0,0,1-2.87,2.85H5.18ZM.67,15.67v3.16q0,4.44,0,8.88a2,2,0,0,0,2.11,2.1H8.92a2,2,0,0,0,2.21-2.18q0-1.65,0-3.29V18q0-7.5,0-15A2,2,0,0,0,9,.89C6.95.88,4.87.88,2.8.9a2.46,2.46,0,0,0-1,.18A1.84,1.84,0,0,0,.67,2.87v12.8ZM7.21,27.88a2.07,2.07,0,0,1-1.45-.61,2,2,0,0,1-.6-1.44,2,2,0,0,1,2-2h0a2,2,0,0,1,0,4.07h0Zm0-3.4a1.39,1.39,0,0,0-1.38,1.35,1.34,1.34,0,0,0,.4,1,1.37,1.37,0,0,0,1,.41h0a1.37,1.37,0,0,0,0-2.73Z"/>
            <path class="cls-1"
                  d="M12.56,28.49l1-1.1.21-.22,3-3,10.11-10.1a5.68,5.68,0,0,0,1.64-2.34l.27-.9,2.57,6.19c.11.25.21.51.31.76a2.58,2.58,0,0,1-1.48,3.5l-8.47,3.51L18.14,26.3c-1.4.58-2.84,1.17-4.3,1.72ZM28.78,12.75a7.76,7.76,0,0,1-1.49,1.84L17.18,24.69,15,26.85c1-.38,1.92-.78,2.85-1.16l3.54-1.46,8.46-3.51A1.93,1.93,0,0,0,31,18.07c-.1-.25-.2-.5-.31-.75Z"/>
            <path class="cls-1"
                  d="M21.93,30.47H12.61l-.29,0-.08-.53.21-.16,8.1-3.36,9.88-4.1a3.92,3.92,0,0,0,1.75-1.37l.56-.77.05,1.16c0,.11,0,.19,0,.26v1.54q0,2.34,0,4.69a2.6,2.6,0,0,1-2.63,2.67Zm-7.87-.67H30.19a1.92,1.92,0,0,0,2-2q0-2.34,0-4.68V22a4.67,4.67,0,0,1-1.45.92L20.82,27Z"/>
            <path class="cls-1"
                  d="M13.42,22.83l-.53-.12-.09-.29V14q0-5.34,0-10.67A4.33,4.33,0,0,0,12.21.86L11.66,0l1.22.48.49.19,1.17.48L18.7,2.88A2.62,2.62,0,0,1,20.2,6.52l-5,12.09ZM13.18,1.32a5.53,5.53,0,0,1,.31,2q0,5.33,0,10.67v7l1.1-2.65,5-12.09a2,2,0,0,0-1.15-2.77L14.29,1.77Z"/>
            <path class="cls-1"
                  d="M14.15,25.33,13.64,25l.15-.39.12-.31,1.51-3.63q2.82-6.8,5.64-13.6a4.21,4.21,0,0,0,.35-2.29l-.12-.86.81.68.22.19,4.15,4.15a2.64,2.64,0,0,1,0,4.13L14.67,24.85l-.23.21Zm8-19.83a5.24,5.24,0,0,1-.43,1.8Q18.85,14.1,16,20.9l-1.16,2.81L26,12.58a2,2,0,0,0,0-3.19Z"/>
        </g>
    </g>
</svg>
