<svg xmlns="http://www.w3.org/2000/svg" viewBox="0 0 30.26 33.86">
    <defs>
        <style>.cls-1{fill:#bcbcbc;}</style>
    </defs>
    <title>Asset 20</title>
    <g id="Layer_2" data-name="Layer 2">
        <g id="Layer_1-2" data-name="Layer 1">
            <path class="cls-1"
                  d="M30.26,24.9l-.92-.61-4.43-2.95a1,1,0,0,1-.51-.93c0-1.29,0-2.59,0-3.89V15c0-.08,0-.16,0-.26l.07-1,5.16,3.44.61-.91-.9-.6L25,12.63a1.12,1.12,0,0,1-.54-1q0-3.85,0-7.71A4,4,0,0,0,20.52,0H9.75A3.59,3.59,0,0,0,9,.1,4.07,4.07,0,0,0,5.85,4q0,3.8,0,7.6a1.12,1.12,0,0,1-.54,1L1.17,15.39,0,16.17l.61.91,5.16-3.44.07,1c0,.08,0,.15,0,.21v1.5c0,1.34,0,2.68,0,4a1,1,0,0,1-.51.93l-4.47,3L0,24.9l.61.91,5.24-3.49v7.5a4.06,4.06,0,0,0,2.91,3.89l.43.11.14,0H20.86l.15,0a4,4,0,0,0,3.41-4.13q0-2.06,0-4.12V22.32l5.24,3.49ZM7,3.87A2.55,2.55,0,0,1,9.72,1.11H20.56a2.56,2.56,0,0,1,2.75,2.75v6l-.82-.55a4.78,4.78,0,0,0-2.88-.6q-4.79,0-9.59,0a4.52,4.52,0,0,0-2.09.49l-.17.08L7,9.58,7,8.44V3.87ZM23.31,21.26A2.55,2.55,0,0,1,20.57,24H9.69A2.55,2.55,0,0,1,7,21.26V12.6A2.55,2.55,0,0,1,9.69,9.84H20.5a2.55,2.55,0,0,1,2.81,2.79Q23.32,16.94,23.31,21.26Zm0,8.68a2.55,2.55,0,0,1-2.79,2.81H9.68A2.55,2.55,0,0,1,7,30q0-1.63,0-3.26V24.39l1.18.35,1.23.36a1.79,1.79,0,0,0,.35,0H20.5a3.68,3.68,0,0,0,1.69-.42l1.07-.54,0,1c0,.09,0,.17,0,.25v4.57Z"/>
            <polygon class="cls-1" points="25.24 12.19 25.24 12.19 25.24 12.19 25.24 12.19"/>
        </g>
    </g>
</svg>
