<svg xmlns="http://www.w3.org/2000/svg" viewBox="0 0 31.6 31.6">
    <defs>
        <style>.cls-1{fill:#f1fa00;}.cls-2{fill:#141414;}</style>
    </defs>
    <title>Asset 3</title>
    <g id="Layer_2" data-name="Layer 2">
        <g id="Layer_1-2" data-name="Layer 1">
            <rect class="cls-1" width="31.6" height="31.6"/>
            <path class="cls-2"
                  d="M19.59,8.75h-7a3.57,3.57,0,0,0-3.56,3.56v7.41a3.57,3.57,0,0,0,3.56,3.56h7a3.57,3.57,0,0,0,3.56-3.56V12.31a3.57,3.57,0,0,0-3.56-3.56ZM16.14,20.52a4.58,4.58,0,1,1,4.58-4.58A4.58,4.58,0,0,1,16.14,20.52Zm4.65-8.14a1.08,1.08,0,1,1,1.08-1.08A1.08,1.08,0,0,1,20.79,12.38Z"/>
            <path class="cls-2"
                  d="M22.61,4.55H9.69a5,5,0,0,0-5,5V22.37a5,5,0,0,0,5,5H22.61a5,5,0,0,0,5-5V9.55A5,5,0,0,0,22.61,4.55Zm1.82,15.17a4.85,4.85,0,0,1-4.84,4.84h-7A4.85,4.85,0,0,1,7.8,19.72V12.31a4.85,4.85,0,0,1,4.84-4.84h7a4.85,4.85,0,0,1,4.84,4.84Z"/>
            <circle class="cls-2" cx="16.12" cy="15.95" r="3"/>
        </g>
    </g>
</svg>
