<svg xmlns="http://www.w3.org/2000/svg" viewBox="0 0 190.17 83.03">
    <defs>
        <style>.cls-1{fill:#fff;}.cls-2{fill:url(#linear-gradient);}.cls-3{opacity:0.3;}</style>
        <linearGradient id="linear-gradient" x1="26.03" y1="24.52" x2="46.17" y2="10.42" gradientUnits="userSpaceOnUse">
            <stop offset="0.24" stop-color="#fff"/>
            <stop offset="1" stop-color="#73f3ff"/>
        </linearGradient>
    </defs>
    <title>Asset 1</title>
    <g id="Layer_2" data-name="Layer 2">
        <g id="Layer_1-2" data-name="Layer 1">
            <path class="cls-1"
                  d="M35.16,46.75c7.71-4.48,8.33-14.25,8.33-17.21a21.45,21.45,0,0,0-4.3-13.66h0A33.77,33.77,0,0,0,31.34,8.1V8l0,0a14.75,14.75,0,0,0-2.49-1.34l0,.07a19,19,0,0,0-7.06-1.13C9.16,5.67,0,15.7,0,29.53,0,44.14,8.35,53.21,21.79,53.21c4.88,0,10.14,2.74,10.14,8.75,0,5.71-4,9.41-10.14,9.41-6,0-10.48-4-10.48-9.41v-.5H0V62C0,74.37,9,83,21.79,83S43.32,74.56,43.32,62C43.32,57.5,42.46,51.14,35.16,46.75ZM21.79,41.84c-6.17,0-10.48-5.06-10.48-12.3S15.62,17,21.79,17s10.4,5.25,10.4,12.49S27.91,41.84,21.79,41.84Z"/>
            <path class="cls-1"
                  d="M60.43,6.11c-12.87,0-22.21,10.31-22.21,24.52,0,14.44,9.17,24.52,22.3,24.52S82.9,45.07,82.9,30.63C82.9,16.42,73.45,6.11,60.43,6.11Zm11,24.52c0,6.5-3.37,13.05-10.91,13.05S49.61,37.13,49.61,30.63c0-6.33,3.41-13.14,10.91-13.14C67.34,17.48,71.43,24.17,71.43,30.63Z"/>
            <path class="cls-2"
                  d="M38.88,0a35.62,35.62,0,0,0-9.71,11.88l0,0A34.67,34.67,0,0,0,26.6,18c3.55,2,5.84,6.22,5.84,11.49a16.77,16.77,0,0,1-.38,3.58l4.28-.28a26.59,26.59,0,0,1,.53-10.74h0A25.57,25.57,0,0,1,45.2,9Z"/>
            <g class="cls-3">
                <path class="cls-1"
                      d="M170.34,50.4a2.16,2.16,0,0,0-2.15,2.3,2.31,2.31,0,0,0,.67,1.71,2.12,2.12,0,0,0,1.48.59,2.31,2.31,0,0,0,0-4.61Zm0,4.1a1.62,1.62,0,0,1-1.13-.45,1.83,1.83,0,0,1-.52-1.35,1.66,1.66,0,1,1,1.65,1.8Z"/>
                <path class="cls-1" d="M173,54.78h3.77v-14H173Zm.5-13.55h2.76v13h-2.76Z"/>
                <path class="cls-1"
                      d="M172.68,37.46a2.31,2.31,0,0,0,.67,1.72,2.12,2.12,0,0,0,1.48.59,2.16,2.16,0,0,0,2.15-2.3,2.18,2.18,0,0,0-1.36-2.16h1.9l3.54-3.81,5.81-6.44c-.74-5.17-2.56-9.44-5.43-12.55-3.69-4-9.11-6.15-15.66-6.15-13.38,0-22.38,9.7-22.38,24.15,0,12.83,6.35,21.53,16.93,23.92l9.83-10.89a16.88,16.88,0,0,1-3.47.41c-6.38,0-10.82-3.3-11.71-8.64H174A2.18,2.18,0,0,0,172.68,37.46Zm-6.56-20.22c5.67,0,9.34,2.84,10.13,7.82h-21C156.76,20.08,160.69,17.24,166.12,17.24Zm8.72,18.42a1.81,1.81,0,0,1,0,3.6,1.62,1.62,0,0,1-1.13-.45,1.83,1.83,0,0,1-.52-1.35A1.67,1.67,0,0,1,174.84,35.66Z"/>
                <path class="cls-1"
                      d="M183.74,43.57A3.36,3.36,0,0,0,180.32,46l-.1.32H187l0-.29A2.92,2.92,0,0,0,183.74,43.57Zm-2.82,2.28a2.84,2.84,0,0,1,2.82-1.78,2.44,2.44,0,0,1,2.65,1.78Z"/>
                <path class="cls-1"
                      d="M188.41,42.26a6.25,6.25,0,0,0-4.76-1.88c-4.06,0-6.79,2.94-6.79,7.31,0,4.59,2.69,7.44,7,7.44a7.41,7.41,0,0,0,5.47-2.28l.23-.27-2.44-2.65-.29.33a4.37,4.37,0,0,1-2.93,1.1,2.92,2.92,0,0,1-3.11-2h9.28l0-.36C190.36,46.07,189.77,43.75,188.41,42.26Zm1.22,6.58H180.2l0,.29a3.39,3.39,0,0,0,3.67,2.74,4.89,4.89,0,0,0,3.22-1.18l1.76,1.91a6.93,6.93,0,0,1-5,2c-4,0-6.51-2.66-6.51-6.94,0-4.07,2.53-6.8,6.29-6.8A5.76,5.76,0,0,1,188,42.6C189.29,44,189.84,46.12,189.62,48.84Z"/>
                <path class="cls-1"
                      d="M136.56,43h0a18.05,18.05,0,0,1-5.54,1c-6.4,0-10.85-3.31-11.75-8.67h23.26a35.73,35.73,0,0,1-.31-4.76,27.35,27.35,0,0,1,4.92-16.42,18.18,18.18,0,0,0-1.34-1.68c-3.7-4-9.13-6.16-15.71-6.16-12.39,0-21,8.3-22.28,21a31.82,31.82,0,0,0-10.06-2.06c-6.48-.45-7.23-2.76-7.23-4.46,0-3.48,4.4-4,7-4,4.21,0,7.24,1.2,9.84,3.88l.37.39A23.66,23.66,0,0,1,113,11.87C108.74,8,104.14,6.45,97.4,6.45A22,22,0,0,0,85.62,9.67,13,13,0,0,0,80.5,15.8a28.51,28.51,0,0,1,3.9,14.83c0,.26,0,.51,0,.76,3.75,2.89,8.91,3.87,12.64,4.18,6.43.4,7.73,1.94,7.73,4.28a4.09,4.09,0,0,1-1.31,3,7.85,7.85,0,0,1-5.62,2C93.5,44.69,86.91,42.2,84,38.63l-.43-.53,0,0A25.59,25.59,0,0,1,78.92,48c6.17,6.57,12.91,7.5,18.73,7.5,6.33,0,12.68-2.32,15.95-7.33,4,4.48,9.92,7,17.26,7a26.85,26.85,0,0,0,5.7-.63v.14a20.74,20.74,0,0,0,11.6-6.22,25,25,0,0,1-5.48-12.5A9.69,9.69,0,0,1,136.56,43Zm-6.12-25.8c5.69,0,9.36,2.85,10.16,7.84H119.53C121,20,125,17.15,130.44,17.15Z"/>
            </g>
        </g>
    </g>
</svg>
