<svg xmlns="http://www.w3.org/2000/svg" viewBox="0 0 72.98 71.37">
    <defs>
        <style>.cls-1{fill:#fff;}</style>
    </defs>
    <title>Asset 3</title>
    <g id="Layer_2" data-name="Layer 2">
        <g id="Layer_1-2" data-name="Layer 1">
            <path class="cls-1"
                  d="M68.67,11.57H4.31C1.94,11.57,0,9,0,5.79H0C0,2.6,1.94,0,4.31,0H68.67C71,0,73,2.6,73,5.79h0C73,9,71,11.57,68.67,11.57Z"/>
            <path class="cls-1"
                  d="M68.67,40.51H4.31C1.94,40.51,0,37.91,0,34.73H0c0-3.18,1.94-5.79,4.31-5.79H68.67c2.37,0,4.31,2.6,4.31,5.79h0C73,37.91,71,40.51,68.67,40.51Z"/>
            <path class="cls-1"
                  d="M68.67,71.37H4.31C1.94,71.37,0,68.77,0,65.58H0C0,62.4,1.94,59.8,4.31,59.8H68.67C71,59.8,73,62.4,73,65.58h0C73,68.77,71,71.37,68.67,71.37Z"/>
        </g>
    </g>
</svg>
