<svg xmlns="http://www.w3.org/2000/svg" viewBox="0 0 98.76 98.78">
    <defs>
        <style>.cls-1{fill:#fff;}</style>
    </defs>
    <title>Asset 2</title>
    <g id="Layer_2" data-name="Layer 2">
        <g id="Layer_1-2" data-name="Layer 1">
            <path class="cls-1"
                  d="M62.78,74.29c-.09-6.3-3.4-10.52-10.11-12.89l-.59-.21V20.37q0-8.73,0-17.45A2.92,2.92,0,0,0,50.71.36,2.5,2.5,0,0,0,49.42,0a2.71,2.71,0,0,0-1.29.34,2.82,2.82,0,0,0-1.46,2.8q0,22.25,0,44.5V61.2l-.59.21C39.53,63.7,36.22,67.79,36,73.91c-.26,6.71,3,11.21,10.11,13.75l.58.21v2.8q0,2.51,0,5A3.32,3.32,0,0,0,47.46,98a2.67,2.67,0,0,0,1.93.81c1.61,0,2.69-1.24,2.69-3.08,0-1.68,0-3.36,0-5v-2.8l.59-.21C59.47,85.23,62.87,80.74,62.78,74.29Zm-13.39,8.3h-.12c-7-.1-11.86-9.24-3.6-16.14h3.72A8,8,0,0,1,55,68.81a8.06,8.06,0,0,1-5.66,13.78Z"/>
            <path class="cls-1"
                  d="M89.74,47.66a13.34,13.34,0,0,0,5.73-21.38A13.79,13.79,0,0,0,88.64,22L88,21.83v-6.4Q88,9.3,88,3.18A2.8,2.8,0,0,0,86.34.25,2.73,2.73,0,0,0,85.22,0a2.49,2.49,0,0,0-1.35.4,2.89,2.89,0,0,0-1.27,2.48c0,6,0,12,0,17.23a2,2,0,0,1-1.51,2.19,13.34,13.34,0,0,0-9.3,12.74,13.48,13.48,0,0,0,9.32,12.72,2,2,0,0,1,1.49,2.1q0,14.23,0,28.46V87.1c0,3,0,5.95,0,8.92a2.78,2.78,0,0,0,1.21,2.33,2.64,2.64,0,0,0,2.48.24C87.44,98.12,88,97.11,88,95.5V87.57q0-18.69,0-37.38A2.3,2.3,0,0,1,89.74,47.66Zm-3-4.55H85.24a8.06,8.06,0,0,1-8-8,8,8,0,0,1,8-8.1h3.64c7.17,5.5,5.09,14.18-2.18,16.1Z"/>
            <path class="cls-1"
                  d="M27,27.86a13.46,13.46,0,0,0-9.3-12.73A1.94,1.94,0,0,1,16.16,13c0-2,0-3.95,0-5.92,0-1.35,0-2.71,0-4.06a2.75,2.75,0,0,0-1-2.38A2.53,2.53,0,0,0,12.4.26,2.66,2.66,0,0,0,10.76,2.9c0,3.55,0,7.77,0,11.82A13.38,13.38,0,0,0,9.07,40.51,2.25,2.25,0,0,1,10.78,43q0,10.23,0,20.47v6.7h0v16.7q0,4.46,0,8.91a2.77,2.77,0,0,0,2.67,3c1.64,0,2.72-1.16,2.75-3,0-.2,0-.41,0-.61V86.39q0-22.7,0-45.39A13.48,13.48,0,0,0,27,27.86ZM13.53,35.94h-.2a8.09,8.09,0,0,1-5.7-2.56,8,8,0,0,1-2.21-5.73A8.06,8.06,0,0,1,7.93,22a7.86,7.86,0,0,1,5.71-2.22,8.07,8.07,0,0,1-.12,16.13Z"/>
        </g>
    </g>
</svg>
