<svg xmlns="http://www.w3.org/2000/svg" viewBox="0 0 28.14 28.5">
    <defs>
        <style>.cls-1{fill:#fff;}</style>
    </defs>
    <title>Asset 1</title>
    <g id="Layer_2" data-name="Layer 2">
        <g id="Layer_1-2" data-name="Layer 1">
            <path class="cls-1"
                  d="M18,3.08A10.53,10.53,0,1,0,18,18,10.46,10.46,0,0,0,18,3.08ZM17,17A9.21,9.21,0,0,1,4,4,9.21,9.21,0,0,1,17,17Z"/>
            <polygon class="cls-1" points="20.22 20.11 20.14 20.03 20.14 20.03 20.21 20.11 20.22 20.11"/>
            <path class="cls-1"
                  d="M26,28.44c.14.15.85.05,1.51-.61a1.77,1.77,0,0,0,.65-1.45v0a.44.44,0,0,0-.14-.22l-6.88-5.62a.45.45,0,0,0-.35-.11h0l-.21-.54.14.56-.24-.52h0l.2.54,0,0-.11-.11v0l.08.1-.11.13h0v.06h0l0,.1h0a.44.44,0,0,0,.1.35l0,0,5.35,7.13Z"/>
        </g>
    </g>
</svg>
