<svg xmlns="http://www.w3.org/2000/svg" viewBox="0 0 20.64 20.7">
    <defs>
        <style>.cls-1{fill:#5d5d5d;}</style>
    </defs>
    <title>Asset 3</title>
    <g id="Layer_2" data-name="Layer 2">
        <g id="Layer_1-2" data-name="Layer 1">
            <path class="cls-1"
                  d="M11.86,11.86a6.95,6.95,0,1,1,0-9.83A7,7,0,0,1,11.86,11.86ZM3.35,3.35a5.09,5.09,0,1,0,7.19,0A5.09,5.09,0,0,0,3.35,3.35ZM20.6,18.7h0a.8.8,0,0,0-.25-.39l-6.63-5.7a.8.8,0,0,0-.61-.19h-.17l0,0h0l0,0h0l0,0,0,0,0,0h0l0,0,0,0h0l0,0,0,0,0,0v0l0,0v0l0,0v.16h0a.8.8,0,0,0,.19.61l5.7,6.63,0,.05.07.09c.35.35,1.1.18,1.66-.38a1.53,1.53,0,0,0,.52-1.43Z"/>
        </g>
    </g>
</svg>
