<svg xmlns="http://www.w3.org/2000/svg" viewBox="0 0 20.52 20.67">
    <defs>
        <style>.cls-1{fill:#606060;}</style>
    </defs>
    <title>Asset 3</title>
    <g id="Layer_2" data-name="Layer 2">
        <g id="Layer_1-2" data-name="Layer 1">
            <path class="cls-1"
                  d="M16.33,20.67l-.54-.13A3.76,3.76,0,0,1,13,16.71a5.07,5.07,0,0,1,.13-.73.15.15,0,0,0-.09-.21c-.82-.42-1.67-.78-2.47-1.23-1.18-.67-2.4-1.25-3.6-1.88a.25.25,0,0,0-.31.07,3.53,3.53,0,0,1-3.11,1.32A3.82,3.82,0,0,1,.81,12.64,3.75,3.75,0,0,1,.59,8.28a2.84,2.84,0,0,1,1.24-1.2,3.74,3.74,0,0,1,4.47.5,2.56,2.56,0,0,1,.32.33.16.16,0,0,0,.24,0L8.79,7l3.36-1.72L13,4.81c.12-.06.13-.12.1-.24a3.54,3.54,0,0,1,.55-2.94A3.89,3.89,0,0,1,16.13.05L16.36,0h.76l.17,0a3.64,3.64,0,0,1,1.5.57,3.7,3.7,0,0,1,1.7,3,3.58,3.58,0,0,1-.44,1.9,3.76,3.76,0,0,1-4.3,1.85,3.67,3.67,0,0,1-1.93-1.28c-.06-.07-.1-.09-.19,0l-.78.4L9.86,8,7.51,9.2a.21.21,0,0,0-.1.26,3,3,0,0,1,0,1.71.15.15,0,0,0,.09.21l.41.21,3,1.55,2.72,1.39c.11.06.16,0,.23,0a6.24,6.24,0,0,1,.64-.59,3.7,3.7,0,0,1,4-.25,3.81,3.81,0,0,1,1.93,3.11,2.67,2.67,0,0,1-.09,1,3.76,3.76,0,0,1-2.82,2.83l-.48.11Z"/>
        </g>
    </g>
</svg>
