<svg xmlns="http://www.w3.org/2000/svg" viewBox="0 0 31.6 31.6">
    <defs>
        <style>.cls-1{fill:#f1fa00;}.cls-2{fill:#161616;}</style>
    </defs>
    <title>Asset 2</title>
    <g id="Layer_2" data-name="Layer 2">
        <g id="Layer_1-2" data-name="Layer 1">
            <rect class="cls-1" width="31.6" height="31.6"/>
            <path class="cls-2"
                  d="M27.33,8.86a9.39,9.39,0,0,1-2.7.74A4.71,4.71,0,0,0,26.69,7a9.4,9.4,0,0,1-3,1.14,4.7,4.7,0,0,0-8,4.28A13.33,13.33,0,0,1,6,7.52a4.7,4.7,0,0,0,1.45,6.27,4.68,4.68,0,0,1-2.13-.59v.06a4.7,4.7,0,0,0,3.77,4.6A4.71,4.71,0,0,1,7,17.94a4.7,4.7,0,0,0,4.39,3.26,9.42,9.42,0,0,1-5.83,2,9.53,9.53,0,0,1-1.12-.07A13.35,13.35,0,0,0,25,11.9q0-.31,0-.61A9.54,9.54,0,0,0,27.33,8.86Z"/>
        </g>
    </g>
</svg>
