<svg xmlns="http://www.w3.org/2000/svg" viewBox="0 0 24.32 24.32">
    <defs>
        <style>.cls-1{fill:none;stroke:#606060;stroke-miterlimit:10;}.cls-2{fill:#606060;}</style>
    </defs>
    <title>Asset 1</title>
    <g id="Layer_2" data-name="Layer 2">
        <g id="Layer_1-2" data-name="Layer 1">
            <rect class="cls-1" x="0.5" y="0.5" width="23.32" height="23.32" rx="3.54" ry="3.54"/>
            <path class="cls-2"
                  d="M20.5,7.89a6.1,6.1,0,0,1-1.76.48,3.06,3.06,0,0,0,1.34-1.69,6.11,6.11,0,0,1-1.94.74,3.06,3.06,0,0,0-5.21,2.79A8.67,8.67,0,0,1,6.64,7a3.06,3.06,0,0,0,.94,4.08,3,3,0,0,1-1.38-.38v0a3.06,3.06,0,0,0,2.45,3,3.13,3.13,0,0,1-.8.11,3,3,0,0,1-.57-.06,3.06,3.06,0,0,0,2.85,2.12,6.13,6.13,0,0,1-3.79,1.31,6.39,6.39,0,0,1-.73,0A8.69,8.69,0,0,0,19,9.87c0-.13,0-.26,0-.4A6.24,6.24,0,0,0,20.5,7.89Z"/>
        </g>
    </g>
</svg>
