<svg xmlns="http://www.w3.org/2000/svg" width="144" height="144" viewBox="0 0 144 144">
    <metadata><?xpacket begin="﻿" id="W5M0MpCehiHzreSzNTczkc9d"?>
        <x:xmpmeta xmlns:x="adobe:ns:meta/" x:xmptk="Adobe XMP Core 5.6-c138 79.159824, 2016/09/14-01:09:01        ">
            <rdf:RDF xmlns:rdf="http://www.w3.org/1999/02/22-rdf-syntax-ns#">
                <rdf:Description rdf:about=""/>
            </rdf:RDF>
        </x:xmpmeta>


        <?xpacket end="w"?>
    </metadata>
    <defs>
        <style>
            .cls-1 {
            fill: #f1fa00;
            }

            .cls-2 {
            fill: #141414;
            fill-rule: evenodd;
            }
        </style>
    </defs>
    <rect class="cls-1" x="6" y="6" width="132" height="132"/>
    <path id="Forma_1" data-name="Forma 1" class="cls-2"
          d="M99.669,94.221H94.4l0.025-3.06a2.484,2.484,0,0,1,2.481-2.473h0.337A2.488,2.488,0,0,1,99.73,91.16ZM79.907,87.663a2.252,2.252,0,0,0-2.43,2v14.884a2.482,2.482,0,0,0,4.867,0V89.66A2.255,2.255,0,0,0,79.907,87.663ZM112,79.338v28.313C112,114.443,106.11,120,98.913,120H45.089C37.888,120,32,114.443,32,107.651V79.338c0-6.792,5.888-12.35,13.089-12.35H98.913C106.11,66.988,112,72.546,112,79.338ZM48.68,110.725l0-29.825,6.672,0V76.483l-17.786-.027V80.8l5.552,0.015v29.908H48.68Zm20-25.382H63.117v15.926a28.234,28.234,0,0,1-.008,3.862c-0.452,1.236-2.486,2.547-3.278.134a31.731,31.731,0,0,1-.018-3.886L59.79,85.343H54.258l0.017,15.784c0,2.419-.054,4.223.019,5.044,0.135,1.448.087,3.135,1.431,4.1,2.5,1.8,7.3-.269,8.5-2.846l-0.011,3.289,4.467,0.005V85.343h0Zm17.8,18.238L86.463,90.325c0-5.052-3.783-8.077-8.914-3.99l0.022-9.855-5.557.008L71.987,110.5l4.569-.066,0.416-2.119C82.813,113.677,86.483,110.006,86.475,103.581Zm17.408-1.757-4.17.022c0,0.165-.008.356-0.01,0.564v2.327A2.277,2.277,0,0,1,97.423,107H96.606a2.278,2.278,0,0,1-2.281-2.261v-6.12h9.551V95.022a57.088,57.088,0,0,0-.284-6.755c-0.684-4.751-7.352-5.505-10.721-3.073a6.283,6.283,0,0,0-2.334,3.142,17.678,17.678,0,0,0-.709,5.6v7.9C89.828,114.982,105.788,113.125,103.883,101.824ZM82.489,58.914a3.781,3.781,0,0,0,1.337,1.69,3.876,3.876,0,0,0,2.276.632,3.541,3.541,0,0,0,2.131-.664,5.1,5.1,0,0,0,1.56-2l-0.105,2.182h6.2V34.39H91.008V54.912a2.033,2.033,0,0,1-4.066,0V34.39H81.848V52.175c0,2.266.042,3.776,0.108,4.542A7.715,7.715,0,0,0,82.489,58.914ZM63.7,44.021a21.937,21.937,0,0,1,.631-5.933,6.347,6.347,0,0,1,6.483-4.72,7.7,7.7,0,0,1,3.69.833,6.155,6.155,0,0,1,2.379,2.163,8.537,8.537,0,0,1,1.148,2.746,21.864,21.864,0,0,1,.311,4.318V50.1a36.175,36.175,0,0,1-.288,5.388,8.539,8.539,0,0,1-1.222,3.2,5.8,5.8,0,0,1-2.386,2.193,7.615,7.615,0,0,1-3.364.707,9.34,9.34,0,0,1-3.585-.6,4.921,4.921,0,0,1-2.287-1.828A8.113,8.113,0,0,1,64.042,56.2,28.464,28.464,0,0,1,63.7,51V44.021h0ZM68.555,54.5a2.475,2.475,0,1,0,4.927,0V40.459a2.475,2.475,0,1,0-4.927,0V54.5Zm-17.16,7.088h5.849L57.25,41.36l6.912-17.325h-6.4L54.09,36.9,50.363,24H44.031l7.354,17.37Z"/>
</svg>
