<svg xmlns="http://www.w3.org/2000/svg" viewBox="0 0 121.96 46.44">
    <defs>
        <style>.cls-1{fill:#bcbcbc;}</style>
    </defs>
    <title>Asset 9</title>
    <g id="Layer_2" data-name="Layer 2">
        <g id="Layer_1-2" data-name="Layer 1">
            <path class="cls-1"
                  d="M88.14,35.77A10.56,10.56,0,1,0,98.8,25.32,10.57,10.57,0,0,0,88.14,35.77Zm3.16.46a7.43,7.43,0,1,1,7.44,7.42A7.42,7.42,0,0,1,91.3,36.23Z"/>
            <path class="cls-1"
                  d="M10.52,35.77A10.56,10.56,0,1,0,21.18,25.32,10.57,10.57,0,0,0,10.52,35.77Zm3.16.46a7.43,7.43,0,1,1,7.44,7.42A7.42,7.42,0,0,1,13.68,36.23Z"/>
            <path class="cls-1"
                  d="M0,28.11c0,1.65.08,3.3.16,4.95A3.61,3.61,0,0,0,1.86,35.9,12,12,0,0,0,9.08,38a28.48,28.48,0,0,1-.3-3.51A12,12,0,0,1,12.61,26c3.06-2.93,6.76-3.71,10.83-3,4.79.85,7.68,3.87,9.24,8.33a22.3,22.3,0,0,1,1.1,7.14c0,.28,0,.55,0,.83.08,0,.14,0,.15,0,.41-.74,1.06-.83,1.85-.83q13.88-.08,27.76-.2h2.75c-.15-1-.35-1.92-.4-2.85-.09-1.7-.08-3.41-.13-5.11,0-1.24-.1-2.47-.14-3.71a43.32,43.32,0,0,1,.72-11.31c1-4.24,1.73-8.52,2.59-12.78a3.35,3.35,0,0,1,.19-.5l.18,0c0,.21,0,.42-.06.62-.66,3.56-1.3,7.12-2,10.67-.27,1.38-.72,2.72-1,4.1a42.67,42.67,0,0,0-.3,9.15c.05,1.4.12,2.81.07,4.21a31.85,31.85,0,0,0,.54,7c.06.33.19.43.51.42l10.13-.1,7.94,0h.69c.07-1.08.1-2.11.21-3.13a16.81,16.81,0,0,1,2-6.52,11.1,11.1,0,0,1,6.2-5.18,12.89,12.89,0,0,1,10,.5c3.33,1.55,5.14,4.31,6,7.76a19.59,19.59,0,0,1,.6,5.24c0,.22,0,.44,0,.7a4.15,4.15,0,0,0,2.57-.55c.57-.33,1.14-.65,1.68-1a2.06,2.06,0,0,0,.65-.76c.34-.71.76-1,1.46-.59a4,4,0,0,0,2,.28.65.65,0,0,0,.68-.46,4.69,4.69,0,0,1,.91-1.7c1-.9.81-2,.88-3.12,0-.45.13-.89.15-1.34s.33-.9-.16-1.29c-.09-.07,0-.32,0-.49,0-1.78-.05-3.57-.05-5.35a7.68,7.68,0,0,0-.89-2.86,1.31,1.31,0,0,1-.09-.62,8.88,8.88,0,0,0-.32-4.6A12.89,12.89,0,0,0,119,11a.83.83,0,0,1-.19-.48c.16-1,0-1.22-.95-.92L112,3.89c.23-.33.5-.77.82-1.17a.68.68,0,0,1,.51-.14c.44,0,.71-.16.93-.65-.51-.1-1-.23-1.48-.28-2.65-.27-5.3-.5-8-.78-.76-.08-1.5-.3-2.26-.41a16.26,16.26,0,0,0-2-.16c-1.41,0-2.81,0-4.22,0C88.3.17,80.21,0,72.12,0,68.58,0,65,.36,61.5.57c-1.67.1-3.34.19-5,.35A22,22,0,0,0,49.66,3a113.56,113.56,0,0,0-16.57,9.39.68.68,0,0,1-.8.08,1,1,0,0,0-.87,0,1.42,1.42,0,0,1-1.13.29,34.78,34.78,0,0,0-7.66.68c-3.89.7-7.78,1.45-11.66,2.21a18.08,18.08,0,0,0-5.1,1.52A3.86,3.86,0,0,0,4.16,19,6.27,6.27,0,0,1,3,20.34,10.79,10.79,0,0,0,0,28.11Zm119.8-1c0-.76.66-1.14,1.66-.92.11.77.06.86-.66.92C120.46,27.14,120.13,27.11,119.8,27.11Zm-7.16-13.3.42,0c2.06-.05,4.12-.09,6.18-.17a.8.8,0,0,1,.92.69,13.32,13.32,0,0,1,.06,4.35c-1.48-.56-2.87-1.1-4.27-1.61C114.37,16.46,113.56,15.14,112.64,13.81ZM94.08,1.91h.34c4,.21,7.9.42,11.85.66a1.19,1.19,0,0,1,.75.37c1.6,1.83,3.18,3.69,4.76,5.54l2,2.39H113c-2.4,0-4.8,0-7.2.11a6.58,6.58,0,0,1-5.4-2.26l-5.9-6.34C94.34,2.23,94.24,2.1,94.08,1.91ZM84,15.3a3.5,3.5,0,0,1,.46-.42.72.72,0,0,1,.38,0,.65.65,0,0,0,.66-.38,1.82,1.82,0,0,1,2.88-.33,1.11,1.11,0,0,0,1.16.39,5.69,5.69,0,0,1,.71,0h.3c.36,0,.64.1.67.5s-.3.51-.63.53-.86,0-1.29,0a.82.82,0,0,0-.73.38,1.83,1.83,0,0,1-2.6.34,1.81,1.81,0,0,0-1.47-.56C84.4,15.71,84.21,15.44,84,15.3ZM69.89,12.74c.32-3.47.66-6.94,1-10.42,0-.41.24-.43.55-.43,4.91,0,9.83,0,14.74,0a1,1,0,0,1,.65.38c.63.91,1.26,1.82,1.81,2.78a5.12,5.12,0,0,1,.85,2c.09,1.58,0,3.17-.09,4.81L69.92,13A2.28,2.28,0,0,1,69.89,12.74ZM57.48,17c0-.18.39-.34.61-.48.07,0,.2,0,.27,0a1.2,1.2,0,0,0,.49-.34A1.93,1.93,0,0,1,62,15.91a.8.8,0,0,0,.55.24c.5,0,1-.12,1.51-.08.22,0,.41.33.61.5-.19.17-.35.44-.56.49a6,6,0,0,1-1.34.08.85.85,0,0,0-.78.4,1.91,1.91,0,0,1-2.83.19,4.17,4.17,0,0,0-.73-.46l-.07.12h-.22C57.82,17.43,57.45,17.39,57.48,17ZM45.1,8.59c1.5-.81,3-1.7,4.42-2.57a29.68,29.68,0,0,1,6.12-2.8C59.48,2,63.44,2.1,67.47,2.08c0,.2-.07.33-.1.45q-1.29,4.89-2.58,9.78c-.38,1.43-.39,1.41-1.9,1.5L48,14.69l-1.69.08a2.07,2.07,0,0,0,.07-.28,14,14,0,0,0,.12-2.29,1.89,1.89,0,0,0-2.08-1.78c0-.21,0-.38,0-.54A1.12,1.12,0,0,1,45.1,8.59ZM2.74,22.3a2.24,2.24,0,0,1,.19-.78c.52-.73,1.07-1.44,1.65-2.14a1,1,0,0,1,.56-.3q4.94-.78,9.88-1.53a6,6,0,0,1,.77,0,3.39,3.39,0,0,1-.36.45,8.77,8.77,0,0,1-4.05,2.07,7,7,0,0,0-2.67,1.09A5.32,5.32,0,0,1,7,21.92c-1.15.24-2.33.37-3.5.51A2.56,2.56,0,0,1,2.74,22.3Zm84.48-8.54a1.35,1.35,0,0,1,1.32.81l-3,.21A1.62,1.62,0,0,1,87.22,13.76Zm-1.49,1.91h2.77C88.2,16.66,86.21,16.73,85.74,15.67ZM60.26,15.4a1.61,1.61,0,0,1,1.7.8l-3,.23A1.51,1.51,0,0,1,60.26,15.4Zm-1.15,2L62,17.2A1.68,1.68,0,0,1,59.11,17.35Z"/>
        </g>
    </g>
</svg>
