<svg xmlns="http://www.w3.org/2000/svg" viewBox="0 0 109.14 34.97">
    <defs>
        <style>.cls-1{fill:#bcbcbc;}</style>
    </defs>
    <title>Asset 4</title>
    <g id="Layer_2" data-name="Layer 2">
        <g id="Layer_1-2" data-name="Layer 1">
            <path class="cls-1"
                  d="M18,21.68c3,0,5.21,2.5,5.34,5.95a4.06,4.06,0,0,1-1.16,3,6.5,6.5,0,0,1-4.66,1.8h-.05a5,5,0,0,1-5.25-5.18,5.33,5.33,0,0,1,1.5-3.83,5.91,5.91,0,0,1,4.21-1.75H18m0-2.53h-.12a8.08,8.08,0,0,0-8.2,8.16A7.57,7.57,0,0,0,17.41,35h.07c4.86,0,8.5-3.28,8.34-7.44-.18-4.81-3.55-8.39-7.87-8.39Z"/>
            <path class="cls-1"
                  d="M88.15,21.67A5.39,5.39,0,0,1,92,23.29a5.64,5.64,0,0,1,1.6,4.1c-.06,3.08-2.1,5-5.34,5h-.07c-2.07,0-5.56-.7-5.58-5.11a5.62,5.62,0,0,1,5.46-5.6h0m0-2.53h-.07a8.16,8.16,0,0,0-8,8.14c0,4.64,3.15,7.59,8.09,7.63h.09c4.61,0,7.78-3,7.87-7.47a8,8,0,0,0-8-8.3Z"/>
            <path class="cls-1"
                  d="M109.11,25.37c-.15-3-1-5.86-1.34-8.81-.5-4.56-.93-5.09-5.46-6.31-3.3-.89-7-1.31-9.73-3.1-12.85-8.31-26.94-8.06-41-5.78-5.72.92-11,4.42-16.53,6.76-1.89.81-3.68,2-5.65,2.43-6.34,1.26-12.74,2.2-19.11,3.28C3.17,15-1.21,21.22.3,27.62c.66,2.8,2.53,3.12,4.88,3.07C8,30.63,6.92,28.6,7,27.26a10.8,10.8,0,0,1,9.8-10.71A10.51,10.51,0,0,1,28.2,25.37a37.41,37.41,0,0,1,.06,6.36c1.11.1,1.78.22,2.46.22,14.74,0,29.48-.08,44.21,0,2.67,0,2.72-1.22,2.52-3.32A11,11,0,0,1,87.55,16.43c6.27-.3,11.3,4.75,11.3,11.36,0,.85,0,1.71,0,3.05,2.33-.2,4.2-.27,6-.53C108.6,29.76,109.3,29.13,109.11,25.37ZM41.8,13.32a13.35,13.35,0,0,1-.43-2.56.37.37,0,0,0,0-.18A6,6,0,0,0,38,9.89q1.34-1,2.68-1.8L44,5.86s4.52-3.34,17.25-4L60.09,12.84Zm21.84-.57,1.13-11A46.68,46.68,0,0,1,80.57,4l-1.63,8.31Zm20.24-.53-2.68.07,1.45-7.42a14.56,14.56,0,0,1,5.19,3.59C89.82,10.87,83.88,12.22,83.88,12.22Z"/>
        </g>
    </g>
</svg>
