<svg xmlns="http://www.w3.org/2000/svg" viewBox="0 0 129.26 53.57">
    <defs>
        <style>.cls-1{fill:#bcbcbc;}</style>
    </defs>
    <title>Asset 10</title>
    <g id="Layer_2" data-name="Layer 2">
        <g id="Layer_1-2" data-name="Layer 1">
            <path class="cls-1"
                  d="M80.46,33.27c-1.64-.08-3.29,0-4.94,0a1.19,1.19,0,0,0-.87.32c-1,1.54-2.55,1.66-4.16,1.49a3.13,3.13,0,0,1-2.79-2.54,3.19,3.19,0,0,1,1.55-3.45,4.49,4.49,0,0,1,5.22.85,1.87,1.87,0,0,0,1.13.55c1,.08,2,0,3,0-.1-.68-.2-1.24-.27-1.81-.3-2.55-.19-5.24-1-7.62A25.32,25.32,0,0,0,70.31,10.4,7.47,7.47,0,0,0,65.7,8.23C61,8,56.27,7.5,51.55,7.54a38.72,38.72,0,0,0-16.37,3.34A77.64,77.64,0,0,0,15.12,24.64,8.73,8.73,0,0,1,13,26.1c-2.74,1.31-5.6,2.37-8.23,3.86S0,33.89,0,37.27A31.21,31.21,0,0,0,.65,43a4.41,4.41,0,0,0,4.16,3.65c1.12.1,2.26,0,3.36,0,1.23-5.23,3.7-7.73,7.68-7.9a7.8,7.8,0,0,1,5,1.46,8.38,8.38,0,0,1,3.42,6.38H62.82c1-4.74,3.2-7.24,6.85-7.77,3.92-.58,6.61,1.21,9.12,6.08a4.3,4.3,0,0,0,3.36-3A11.83,11.83,0,0,0,81.57,34,1.51,1.51,0,0,0,80.46,33.27ZM73.63,23a18.82,18.82,0,0,1,2.75-1.7l.75,5.06a4.87,4.87,0,0,1-3.54-1A1.45,1.45,0,0,1,73.63,23ZM1.3,35.6c1.11-2.89,3.28-4.54,6-5.86C8.08,32.71,4.56,36.15,1.3,35.6ZM25.74,24.19A15.27,15.27,0,0,1,30,18.27c6.7-5.92,14.65-7.9,23.37-7.46,1.18.06,2.36.18,3.53.3a5.1,5.1,0,0,1,4.4,3.18A51.74,51.74,0,0,1,63,19.69ZM129.26,11.1c0-.51,0-1,0-1.52A10.23,10.23,0,0,0,119.63,0,10.05,10.05,0,0,0,108.86,8.5a65.7,65.7,0,0,0-.23,8c0,.61,0,1.23,0,1.91H106c-3.69,0-5.45,1.74-5.45,5.41,0,7.39,0,14.78,0,22.17,0,2.25-1.33,3.75-3.24,3.75S94.09,48.26,94.07,46c0-3.12,0-6.25,0-9.37,0-3.64-1.72-5.39-5.32-5.39-4.43,0-8.87,0-13.3,0a1.53,1.53,0,0,1-1.54-.77C73,29,70.16,28.9,69,30.22a2.48,2.48,0,0,0,.2,3.52c1.23,1.11,3.88.9,4.75-.5a1.51,1.51,0,0,1,1.55-.74c4.48,0,9,0,13.43,0,2.64,0,3.84,1.21,3.85,3.89,0,3.25,0,6.5,0,9.75A4.59,4.59,0,0,0,97.39,51c2.63,0,4.46-2,4.48-4.93,0-3.08,0-6.17,0-9.25,0-4.48,0-9,0-13.43,0-2.4,1.27-3.67,3.67-3.72,1,0,1.93,0,3.08,0,0,.69,0,1.19,0,1.69,0,10.22,0,20.44,0,30.66,0,1.24.39,1.57,1.59,1.56,5.78-.05,11.57,0,17.36,0,1.71,0,1.72,0,1.72-1.78Q129.26,31.43,129.26,11.1ZM117.18,42l-.42-.19c-.11-1.32.74-2.42,1.13-3.62s1-2.49,1.54-4H114l-.21-.37,7.25-9.68.48.22c-.46,2.39-1.92,4.46-2.66,7h5l.2.39Zm8.35-29.18c-.09,2,0,4,0,6.14h-13V11.65c.44,0,.85-.07,1.26-.07,3.5,0,7,0,10.49,0C125.15,11.54,125.57,11.73,125.52,12.8ZM70.94,39.87a6.84,6.84,0,1,0,6.77,6.92A6.87,6.87,0,0,0,70.94,39.87Zm-.1,10.55a3.69,3.69,0,0,1-3.62-3.63,3.67,3.67,0,1,1,7.34-.05A3.74,3.74,0,0,1,70.84,50.42ZM16.26,39.87a6.84,6.84,0,1,0,6.84,6.85A6.82,6.82,0,0,0,16.26,39.87Zm0,10.54a3.72,3.72,0,0,1-3.63-3.64,3.67,3.67,0,1,1,7.35,0A3.71,3.71,0,0,1,16.21,50.42Z"/>
        </g>
    </g>
</svg>
