<svg xmlns="http://www.w3.org/2000/svg" viewBox="0 0 101.44 39.42">
    <defs>
        <style>.cls-1{fill:#bcbcbc;}</style>
    </defs>
    <title>Asset 8</title>
    <g id="Layer_2" data-name="Layer 2">
        <g id="Layer_1-2" data-name="Layer 1">
            <path class="cls-1"
                  d="M86.36,22.3v2.53h.06a5.82,5.82,0,0,1,5.86,6,6.1,6.1,0,0,1-5.82,6.09h-.08a6.18,6.18,0,0,1-6.06-6.05A5.88,5.88,0,0,1,82,26.61a6,6,0,0,1,4.33-1.78V22.3m0,0a8.48,8.48,0,0,0-8.56,8.55,8.75,8.75,0,0,0,8.59,8.57h.11a8.63,8.63,0,0,0,8.31-8.62,8.38,8.38,0,0,0-8.37-8.49Z"/>
            <path class="cls-1"
                  d="M18,24.83h.07a5.81,5.81,0,0,1,5.84,6A6,6,0,0,1,18,36.89h-.09a6.28,6.28,0,0,1-5.92-6.08,5.8,5.8,0,0,1,1.71-4.17A6,6,0,0,1,18,24.83m0-2.53a8.53,8.53,0,0,0-8.57,8.54,8.82,8.82,0,0,0,8.42,8.59H18a8.56,8.56,0,0,0,8.47-8.62,8.33,8.33,0,0,0-8.34-8.5Z"/>
            <path class="cls-1"
                  d="M99.41,21.13c-.29-.2-.19-.94-.34-1.4q-2.78-8.65-5.59-17.29C92.87.57,91.57,0,89.64,0c0,0-44.89-.16-47.09.57l-.33.13A17.64,17.64,0,0,0,30.79,8.36c-1.81,2.58-4.4,3.15-7.37,3.49-6.24.71-12.45,1.73-18.63,2.81-1.09.19-2.71,1.15-2.9,2A111.42,111.42,0,0,0,0,28.69c-.21,2,.66,3.48,3.05,3.35,1.93-.1,3.91.69,4.14-2.8.36-5.31,5.37-9.38,10.45-9.38,5.7,0,10.47,3.87,11,9.43.23,2.44,1.2,2.84,3.31,2.83,13.38-.07,26.75-.09,40.13,0,2.34,0,3.14-.66,3.5-3a10.68,10.68,0,0,1,11.2-9.22c5.39.21,9.6,4.26,10.43,9.87.12.81,1,1.51,1.46,2.26.81-.78,2.34-1.58,2.31-2.32C100.88,26.82,102.82,23.44,99.41,21.13ZM59.56,13.91H35.78L36,12.57s0-3.07-1.15-3.26l-1.15-.19s4-6.52,14.77-6.52H59.56Zm16.88,0H62.82V2.6H80.23l1.63,10.88A30.31,30.31,0,0,1,76.43,13.91ZM85,12.58l-1.5-10H87s1.53-.38,2.3,1.53C89.85,5.55,90.74,10.26,85,12.58Z"/>
        </g>
    </g>
</svg>
