<svg xmlns="http://www.w3.org/2000/svg" viewBox="0 0 113.7 35.89">
    <defs>
        <style>.cls-1{fill:#bcbcbc;}</style>
    </defs>
    <title>Asset 5</title>
    <g id="Layer_2" data-name="Layer 2">
        <g id="Layer_1-2" data-name="Layer 1">
            <path class="cls-1"
                  d="M11.58,31.11C10.81,31.06,10.1,31,9.4,31c-2.51-.27-5-.53-7.52-.83A1.23,1.23,0,0,1,.66,29c-.16-1.18-.41-2.35-.6-3.52A5.31,5.31,0,0,1,.31,22.9a24.49,24.49,0,0,0,1-3.78,4.16,4.16,0,0,1,2.89-3.4,35.89,35.89,0,0,1,5-1.44c3.22-.66,6.47-1.24,9.72-1.76,2.1-.34,4.22-.54,6.33-.76,2.55-.26,5.1-.45,7.65-.74a5,5,0,0,0,2-.67,112.1,112.1,0,0,1,11.75-6.4A28.31,28.31,0,0,1,52,1.85,75.59,75.59,0,0,1,65.33.17c8.91-.42,17.8,0,26.7.29a33,33,0,0,1,9.21,1.45c1.47.47,2.85,1.19,4.27,1.81a1.05,1.05,0,0,1,.33.25c1.65,1.75,3.34,3.46,4.92,5.27a17.77,17.77,0,0,1,2.33,3.3,6,6,0,0,1,.59,2.64c0,2.74,0,5.48-.09,8.22a7.88,7.88,0,0,1-.26,1.46A4.37,4.37,0,0,1,110.66,28a21.77,21.77,0,0,1-7,2.1c-1.61.14-3.25,0-5,0a25.84,25.84,0,0,0,0-2.86A9.43,9.43,0,0,0,93,19.25a9.24,9.24,0,0,0-11,2.82,9.47,9.47,0,0,0-1.56,4.63c-.14,1.28-.25,2.57-.38,3.85,0,.36-.65.73-1.25.73q-16.79,0-33.58-.08c-4.75,0-9.49-.08-14.24-.13h-.56c-.24-2-.38-4-.74-6a7.79,7.79,0,0,0-3.42-5.44,10.32,10.32,0,0,0-6.39-1.45c-4.75.31-8.55,4.87-8.32,10C11.62,29.16,11.58,30.09,11.58,31.11ZM88.36,11.49c-.07-.14-.11-.23-.16-.31-1.95-3-3.9-5.94-5.83-8.93a.81.81,0,0,0-.79-.39l-15,0a5,5,0,0,0-.51.05v9.6Zm-49.54-.13.08.14H39l22.23,0c.36,0,.46-.14.54-.46.5-2.14,1-4.28,1.54-6.42.22-.9.42-1.8.64-2.76-.29,0-.48,0-.68,0-2.2.19-4.4.32-6.58.61a15.52,15.52,0,0,0-5.94,1.82L41,10C40.26,10.41,39.54,10.9,38.82,11.36Zm68.58.15.09-.14c-1.43-1.57-2.81-3.18-4.29-4.69A12.1,12.1,0,0,0,96,3.08c-3.13-.4-6.28-.59-9.42-.87-.44,0-.88-.05-1.33-.08,0,.1,0,.15,0,.17q3.09,4.49,6.19,9a.75.75,0,0,0,.54.23c1.21,0,2.42,0,3.63,0ZM11.66,14.36c-1.81.45-3.52.76-5.15,1.31a24.06,24.06,0,0,0-3.6,1.77c-.51.28-.49.61,0,.84a2.51,2.51,0,0,0,1.26.24,23.77,23.77,0,0,0,3.54-.69A5.84,5.84,0,0,0,11.66,14.36Z"/>
            <path class="cls-1"
                  d="M20.73,35.89a7.94,7.94,0,1,1,7.93-8A7.92,7.92,0,0,1,20.73,35.89Zm0-2A5.9,5.9,0,1,0,14.83,28,5.9,5.9,0,0,0,20.75,33.85Z"/>
            <path class="cls-1"
                  d="M89.54,35.89a7.94,7.94,0,1,1,8-7.85A7.93,7.93,0,0,1,89.54,35.89Zm0-2A5.9,5.9,0,0,0,89.62,22a5.9,5.9,0,0,0-.09,11.81Z"/>
        </g>
    </g>
</svg>
