<svg xmlns="http://www.w3.org/2000/svg" viewBox="0 0 105.67 54.81">
    <defs>
        <style>.cls-1{fill:#bcbcbc;}</style>
    </defs>
    <title>Asset 11</title>
    <g id="Layer_2" data-name="Layer 2">
        <g id="Layer_1-2" data-name="Layer 1">
            <path class="cls-1"
                  d="M80.82,35.71c.56,2.22.67,4.16-1.22,5.53s-3.86.78-6-.69c.68,2.57.68,4.75-1.65,6.1s-4.17-.15-6.29-1.45c.53,2.42.53,4.64-1.73,5.67-1.24.57-2.84.33-4.51.47,1.52-6,.53-8-4.42-10,.45-6.17-2.36-8.72-8.39-7.61-2.38-4.5-4.22-5.33-9.07-4.1-2.41-3.68-4.61-5.26-7.27-4s-4.61,3.55-7.2,5.64l-4.2-2.28,7.81-11.33a34.22,34.22,0,0,0,3-4.47c2.22-4.68,6.16-6.57,11.34-7.16L36.77,20.8a64.31,64.31,0,0,0,7.37.89c3.21,0,5.16-2.07,6.34-4.83a2.69,2.69,0,0,1,2.62-1.76A22.29,22.29,0,0,1,69,19.41C74.48,23.25,80,27,85.5,30.76c1.06.74,2.82,1.17,1.94,3.15a3.88,3.88,0,0,1-4.33,2.49A15.15,15.15,0,0,1,80.82,35.71Z"/>
            <path class="cls-1"
                  d="M0,26.5,19.94,0,31.35,7.82,12.76,34.75ZM9.59,28a2.89,2.89,0,0,0,3-2.92,2.75,2.75,0,0,0-2.73-2.92A2.91,2.91,0,0,0,6.71,24.9,3,3,0,0,0,9.59,28Z"/>
            <path class="cls-1"
                  d="M74.32,7.82,85.73,0l19.93,26.49L92.92,34.75ZM96.06,28a3,3,0,0,0,2.91-3,2.81,2.81,0,0,0-2.89-2.8A2.94,2.94,0,0,0,93,25,3,3,0,0,0,96.06,28Z"/>
            <path class="cls-1"
                  d="M39.13,19.13c1.12-3.81,2.15-7.5,3.35-11.14a2.79,2.79,0,0,1,1.75-1.49C48,5.57,51.73,4.78,55.5,4A5.59,5.59,0,0,1,58,4.15C62.4,5.4,66.76,6.7,71.1,8.08a4.52,4.52,0,0,1,2.22,1.51c4.47,6.35,8.85,12.76,13.64,19.7-1-.55-1.51-.76-2-1.07Q77,22.77,69.09,17.3c-5.45-3.77-11.5-4.76-17.93-3.81a2.63,2.63,0,0,0-1.65,1.3C46.87,20.08,45.05,20.91,39.13,19.13Z"/>
            <path class="cls-1"
                  d="M42.5,51.5c-1.11-.81-2.66-1.39-3.14-2.44A4.92,4.92,0,0,1,39.43,45a85.49,85.49,0,0,1,7-8.54,3.84,3.84,0,0,1,5.51-.23,3.93,3.93,0,0,1,.66,5.32c-2.26,2.91-4.65,5.72-7.11,8.45C44.87,50.63,43.76,50.87,42.5,51.5Z"/>
            <path class="cls-1"
                  d="M45.15,34.45a23,23,0,0,1-1.71,3.33C41.77,40,40,42,38.23,44.13s-4.18,2.43-6,1-2-3.92-.13-6.19,3.62-4.52,5.53-6.69a3.39,3.39,0,0,1,4.45-1C43.27,32,44.11,33.34,45.15,34.45Z"/>
            <path class="cls-1"
                  d="M36.09,30.9a17.09,17.09,0,0,1-1.27,2.56c-1.38,1.8-2.8,3.56-4.28,5.27a4.05,4.05,0,0,1-5.83.64,4,4,0,0,1-.47-5.67c1.39-1.79,2.87-3.51,4.4-5.18,1.3-1.42,3.06-1.91,4.66-.88C34.47,28.42,35.21,29.84,36.09,30.9Z"/>
            <path class="cls-1"
                  d="M50.9,54.81c-.53-.4-2.07-1-2.52-2.07a5.71,5.71,0,0,1,.19-4.13,10.46,10.46,0,0,1,3.13-3.77,5.1,5.1,0,0,1,3.69-1.17,4.87,4.87,0,0,1,2.84,2.72C59.31,49.19,54.79,54.84,50.9,54.81Z"/>
        </g>
    </g>
</svg>
