<svg xmlns="http://www.w3.org/2000/svg" viewBox="0 0 61.4 44.07">
    <defs>
        <style>.cls-1{fill:#bcbcbc;}</style>
    </defs>
    <title>Asset 2</title>
    <g id="Layer_2" data-name="Layer 2">
        <g id="Layer_1-2" data-name="Layer 1">
            <path class="cls-1"
                  d="M5.24,15.47,2,15.22c-1.08-.09-2.08-.39-2-1.71s.28-2.59,1.9-2.91c.46-.09.93-.15,1.39-.2,2.79-.33,3.11-.1,3.6,2.44,1.59-3.21,3.29-6.46,4.82-9.78a5.06,5.06,0,0,1,5-3Q30.83-.05,45,.06a5,5,0,0,1,4.95,3.06c1.49,3.27,3.17,6.46,4.6,9.33.61-.63,1.24-1.82,2.11-2a5.28,5.28,0,0,1,3.66.5c.73.45,1.06,1.88,1.11,2.9,0,.42-1.11,1.1-1.81,1.29a14.34,14.34,0,0,1-2.86.28c.42,2.63,1,5.23,1.2,7.85.18,2.46-.11,4.95-.13,7.43,0,3.74-.05,7.48,0,11.22,0,1.45-.53,2.14-2,2.09-.27,0-.54,0-.8,0-5.43.16-5.88-.4-4.84-6.26l5.62,1c-7.52-2.08-15.21-1.1-22.85-1.24s-15.53,0-23.31.18l2,.18c0,1,0,1.88,0,2.8,0,3.26,0,3.29-3.16,3.33-5.62.07-4.62-.15-4.68-4.45-.07-5.23-.23-10.46-.14-15.69a46.2,46.2,0,0,1,1-6.69A10.82,10.82,0,0,1,5.24,15.47ZM30.9,3v-.6c-5.41.2-10.82.44-16.23.58a2,2,0,0,0-2.2,1.54C11.59,7,10.56,9.5,9.71,12c-.78,2.33,0,3,2.48,2.63a43.25,43.25,0,0,1,5.73-.59c4.67-.14,9.34-.27,14-.2q9,.14,18,.65c2.17.13,2.74-.22,2-2.37-.91-2.72-1.93-5.4-3.06-8A2.34,2.34,0,0,0,47.13,3C41.72,3,36.31,3,30.9,3ZM43.61,29.26a26.86,26.86,0,0,0-2-4.41A4,4,0,0,0,39,23.16c-5.48-.15-11-.1-16.44,0a2.75,2.75,0,0,0-2,.93A54.41,54.41,0,0,0,18,29.26Zm.1-6.15-.32.69c.73.7,1.44,2,2.19,2,3.23.09,6.48-.19,9.74-.34a16.38,16.38,0,0,0-.07-3.4,1.79,1.79,0,0,0-1.42-1C50.44,21.63,47.08,22.39,43.71,23.1Zm-25.78,0c-3.23-.69-6.47-1.37-9.7-2.09-1.23-.28-2-.06-1.92,1.37,0,1.24-.92,3,1.52,3.06s4.79.28,7.19.46C16.84,26.06,17.73,25.19,17.93,23.13Zm-3,8.41c-2.37,0-4.44,0-6.5,0C6.67,31.59,7,33,6.86,34.06s.4,1.59,1.55,1.53c1.33-.06,2.69.12,4-.07a2.78,2.78,0,0,0,1.68-1.26A12,12,0,0,0,14.91,31.55Zm31.93,0c.48,3.87.72,4.09,4.14,4.07.73,0,1.47-.05,2.19,0,1.29.11,1.67-.59,1.55-1.69s.18-2.42-1.61-2.39C51.05,31.55,49,31.53,46.83,31.53Z"/>
        </g>
    </g>
</svg>
