<svg xmlns="http://www.w3.org/2000/svg" viewBox="0 0 121.38 31.02">
    <defs>
        <style>.cls-1{fill:#bcbcbc;}</style>
    </defs>
    <title>Asset 6</title>
    <g id="Layer_2" data-name="Layer 2">
        <g id="Layer_1-2" data-name="Layer 1">
            <path class="cls-1"
                  d="M121.38,10.74c-3.61,3.25-3.2,6.16-.93,9.36,1.47,2.08.4,4-1.59,5.22a12.73,12.73,0,0,1-3.62,1.4c-3.58.86-4.17.33-4.09-3.42C111.32,15.53,106.24,10,99,10.21S86.82,16.45,87.57,24.29c.38,4.06.36,4.13-3.57,4.14q-23.49.07-47,.08c-1,0-1.91-.17-3.23-.3.17-1.56.32-2.91.45-4.26.49-5.09-1.18-9.26-5.56-12a11,11,0,0,0-12.34-.1c-4.42,2.71-6.18,6.81-5.68,11.94.09.94.12,1.9.17,2.81C6.07,27.54.33,23.93,0,19.5c-.1-1.34,1.18-3.25,2.38-4.15C8.63,10.71,16,9.08,23.54,8.82c5-.17,10,.43,15,.59a7.33,7.33,0,0,0,3.74-.51c19-11.18,38.95-10.66,59.31-4.82,5.22,1.5,10.39,3.15,15.57,4.79C118.35,9.25,119.47,9.88,121.38,10.74ZM77.58,1.52c-10.64-.2-19.79,1.33-28.66,6.95l3.73.32L53,12.32c6.31-.31,12.46-.58,18.6-1A2.93,2.93,0,0,0,73.69,10C75,7.48,76.1,4.81,77.58,1.52Zm-.74,9c5.08-.2,9.43-2.93,10.77-6.79-2.54-.45-5.92-2.06-7.19-1C78.5,4.23,78.05,7.61,76.84,10.53Z"/>
            <path class="cls-1"
                  d="M22.49,15.61a6.31,6.31,0,0,1,4.56,1.82A6.54,6.54,0,0,1,22.7,28.48a6.61,6.61,0,0,1-6.56-6.63,6.29,6.29,0,0,1,6.24-6.24h.12m0-2.53h-.15a8.79,8.79,0,0,0-8.73,8.74A9.14,9.14,0,0,0,22.69,31h0a9.1,9.1,0,0,0,8.69-8.88,8.74,8.74,0,0,0-8.9-9.06Z"/>
            <path class="cls-1"
                  d="M99.41,13.06V15.6a6.2,6.2,0,0,1,6.44,6.23,6.57,6.57,0,0,1-1.91,4.75,6.22,6.22,0,0,1-4.47,1.91A6.59,6.59,0,0,1,93.16,22,6.28,6.28,0,0,1,95,17.45a6.19,6.19,0,0,1,4.43-1.85l0-2.53m0,0h0A8.78,8.78,0,0,0,90.62,22a9.09,9.09,0,0,0,8.84,9h0a9.06,9.06,0,0,0,8.88-9.24,8.76,8.76,0,0,0-9-8.72Z"/>
        </g>
    </g>
</svg>
