<svg xmlns="http://www.w3.org/2000/svg" viewBox="0 0 107.71 33.85">
    <defs>
        <style>.cls-1{fill:#bcbcbc;}</style>
    </defs>
    <title>Asset 7</title>
    <g id="Layer_2" data-name="Layer 2">
        <g id="Layer_1-2" data-name="Layer 1">
            <path class="cls-1"
                  d="M27.9,30.11c.11-1.44.2-2.49.26-3.55a10.69,10.69,0,1,0-21.34-.79c0,1.51.63,3.23-2,3.3-3.19.09-4.42-.68-4.73-3.41-.79-7,2.44-11.69,9.26-13.17,4.77-1,9.58-2,14.42-2.63A29,29,0,0,0,35.34,6c3.33-2,7-3.55,10.48-5.26A18.36,18.36,0,0,1,48,0l.49,1c-2,1-3.95,2-5.88,3.11s-3.82,2.28-5.91,3.54c1.82,1.4,5.59-.18,4.9,3.33,5.78,0,11.53,0,17.28,0a3.19,3.19,0,0,0,1.84-1.11,18.41,18.41,0,0,0,1.66-2.28l1.47,2.65c4.17,0,8.56.17,12.92-.12,1.08-.07,2.07-1.64,3.1-2.52l-.2-.93C87.34,7.74,95,8.81,102.56,10c2.16.33,3.33,1.59,3.56,4,.33,3.43,1.15,6.8,1.54,10.22.32,2.83-1,4.46-4,4.49a16.57,16.57,0,0,0-1.75.17c-3.94.46-3.94.46-4.15-3.55a10.67,10.67,0,0,0-21.34.3,5.3,5.3,0,0,0,0,1.17c.64,3.07-1,3.62-3.6,3.58-7.63-.12-15.27,0-22.9,0H30.52C29.76,30.27,29,30.18,27.9,30.11Z"/>
            <path class="cls-1"
                  d="M87,20.1h.19a5.55,5.55,0,0,1,5.35,5.66A6,6,0,0,1,87,31.3H87a5.48,5.48,0,0,1-3.8-1.78,5.77,5.77,0,0,1-1.64-4.12A5.55,5.55,0,0,1,87,20.1m0-2.53a8.08,8.08,0,0,0-8,7.74,8.39,8.39,0,0,0,7.92,8.52H87a8.47,8.47,0,0,0,8.06-8,8.1,8.1,0,0,0-7.8-8.27Z"/>
            <path class="cls-1"
                  d="M17.52,17.57l0,2.53A5.41,5.41,0,0,1,23,25.63a5.71,5.71,0,0,1-5.4,5.68h-.07a5.32,5.32,0,0,1-3.7-1.66A5.84,5.84,0,0,1,12,25.54a5.44,5.44,0,0,1,5.48-5.43V17.57m0,0a8,8,0,0,0-8,7.93,8.36,8.36,0,0,0,8,8.34h.11a8.2,8.2,0,0,0,7.89-8.2,7.92,7.92,0,0,0-7.91-8.07Z"/>
        </g>
    </g>
</svg>
