<svg xmlns="http://www.w3.org/2000/svg" viewBox="0 0 93.35 32.45">
    <defs>
        <style>.cls-1{fill:#bcbcbc;}</style>
    </defs>
    <title>Asset 3</title>
    <g id="Layer_2" data-name="Layer 2">
        <g id="Layer_1-2" data-name="Layer 1">
            <path class="cls-1"
                  d="M26.24,29.17c0-1.69,0-3,0-4.38a9.87,9.87,0,0,0-19.75,0c0,1.56.55,3.38-2.22,3.25-3-.14-3.93-.75-4.2-3.39C-.5,19,2.6,14.51,8.1,13.33,14.28,12,20.53,10.9,26.74,9.66a7.42,7.42,0,0,0,2.77-1C41.67.19,55.24-.82,69.52.45c7.12.63,13,3.47,18.71,7.19a6.41,6.41,0,0,1,2.24,3.45c1,3.6,1.72,7.29,2.6,10.93,1,4.08-.48,6-4.74,5.83,0-1.13,0-2.29,0-3.43a9.87,9.87,0,0,0-19.73.18c-.15,4.56-.15,4.54-4.68,4.54q-17.11,0-34.22,0ZM57.39,2.06A31.13,31.13,0,0,0,35.18,8.74c2.21,0,3.79.64,3.68,3.26,5.3-.25,10.35-.43,15.4-.78a2.52,2.52,0,0,0,1.82-1.47C56.65,7.31,56.95,4.8,57.39,2.06Zm20.26,8.26L78,9.44c-2.2-2.7-3.68-6.24-7.72-6.89A56,56,0,0,0,61.91,2c-.75,0-2,.74-2.18,1.34-.56,2.49-.77,5.07-1.16,8Z"/>
            <path class="cls-1"
                  d="M78.41,19.89A5,5,0,0,1,82,21.4a4.83,4.83,0,0,1,1.42,3.49,5.15,5.15,0,0,1-4.92,5,4.84,4.84,0,0,1-3.38-1.51,5.2,5.2,0,0,1-1.54-3.68,5,5,0,0,1,4.83-4.79h0m0-2.53h-.07A7.58,7.58,0,0,0,71,24.64a7.76,7.76,0,0,0,7.46,7.76h0a7.7,7.7,0,0,0,7.45-7.48,7.52,7.52,0,0,0-7.51-7.57Z"/>
            <path class="cls-1"
                  d="M16.34,17.36v2.53a5,5,0,0,1,4.92,4.9,5.21,5.21,0,0,1-5.11,5.12H16c-2.32,0-4.61-2.56-4.62-5.08a5,5,0,0,1,4.89-4.94l0-2.53m0,0h0A7.51,7.51,0,0,0,8.9,24.84c0,3.88,3.41,7.52,7.1,7.6h.16a7.74,7.74,0,0,0,7.64-7.66,7.53,7.53,0,0,0-7.46-7.43Z"/>
        </g>
    </g>
</svg>
